<?xml version="1.0" encoding="iso-8859-1"?>
<!-- Generator: Adobe Illustrator 19.0.0, SVG Export Plug-In . SVG Version: 6.00 Build 0)  -->
<svg version="1.1" id="Layer_1" xmlns="http://www.w3.org/2000/svg" xmlns:xlink="http://www.w3.org/1999/xlink" x="0px" y="0px"
	 viewBox="0 0 512 512" style="enable-background:new 0 0 512 512;" xml:space="preserve">
<g>
	<rect x="199.111" y="358.457" style="fill:white" width="113.778" height="52.622"/>
	<rect x="28.444" y="157.284" style="fill:white" width="113.778" height="52.622"/>
	<rect x="28.444" y="209.906" style="fill:white" width="113.778" height="52.622"/>
</g>
<path style="fill:#354785" d="M150.756,468.294h-51.2v-81.387h42.667c7.855,0,14.222-6.369,14.222-14.222
	s-6.367-14.222-14.222-14.222H42.667v-24.178h99.556c7.855,0,14.222-6.369,14.222-14.222s-6.367-14.222-14.222-14.222H99.556v-29.09
	h42.667c7.855,0,14.222-6.369,14.222-14.222v-52.619v-0.003v-52.619c0-7.854-6.367-14.222-14.222-14.222H99.556V29.484
	c0-7.854-6.367-14.222-14.222-14.222s-14.222,6.369-14.222,14.222v113.58H28.444c-7.855,0-14.222,6.369-14.222,14.222v52.619v0.003
	v52.619c0,7.854,6.367,14.222,14.222,14.222h42.667v29.09H28.444c-7.855,0-14.222,6.369-14.222,14.222v52.622
	c0,7.854,6.367,14.222,14.222,14.222h42.667v81.387H14.222C6.367,468.294,0,474.662,0,482.516s6.367,14.222,14.222,14.222h136.533
	c7.855,0,14.222-6.369,14.222-14.222S158.609,468.294,150.756,468.294z M128,171.509v24.175H42.667v-24.175L128,171.509L128,171.509
	z M42.667,224.131H128v24.175H42.667V224.131z"/>
<g>
	<rect x="369.778" y="157.284" style="fill:white" width="113.778" height="52.622"/>
	<rect x="369.778" y="262.528" style="fill:white" width="113.778" height="52.622"/>
</g>
<path style="fill:#354785" d="M483.556,143.064h-42.667V29.484c0-7.854-6.367-14.222-14.222-14.222s-14.222,6.369-14.222,14.222
	v113.58h-42.667c-7.855,0-14.222,6.369-14.222,14.222v52.619v0.003v52.619v52.622c0,7.854,6.367,14.222,14.222,14.222h42.667v32.168
	c0,7.853,6.367,14.222,14.222,14.222s14.222-6.369,14.222-14.222v-32.168h42.667c7.855,0,14.222-6.369,14.222-14.222v-52.622
	c0-7.854-6.367-14.222-14.222-14.222H384v-24.175h99.556c7.855,0,14.222-6.369,14.222-14.222v-52.622
	C497.778,149.433,491.411,143.064,483.556,143.064z M469.333,171.509v24.175H384v-24.175L469.333,171.509L469.333,171.509z
	 M469.333,276.75v24.178H384V276.75H469.333z"/>
<g>
	<rect x="199.111" y="60.514" style="fill:white" width="113.778" height="52.622"/>
	<rect x="199.111" y="243.271" style="fill:white" width="113.778" height="52.622"/>
</g>
<path style="fill:#354785" d="M497.778,468.294h-56.889v-47.009c0-7.854-6.367-14.222-14.222-14.222s-14.222,6.369-14.222,14.222
	v47.009H270.222V425.3h42.667c7.855,0,14.222-6.369,14.222-14.222v-52.622c0-7.854-6.367-14.222-14.222-14.222h-42.667v-34.112
	h42.667c7.855,0,14.222-6.369,14.222-14.222v-52.622c0-7.854-6.367-14.222-14.222-14.222h-99.556V204.88h99.556
	c7.855,0,14.222-6.369,14.222-14.222s-6.367-14.222-14.222-14.222h-42.667v-49.077h42.667c7.855,0,14.222-6.369,14.222-14.222
	V60.514c0-7.854-6.367-14.222-14.222-14.222h-42.667V29.484c0-7.854-6.367-14.222-14.222-14.222s-14.222,6.369-14.222,14.222v16.808
	h-42.667c-7.855,0-14.222,6.369-14.222,14.222v52.622c0,7.854,6.367,14.222,14.222,14.222h42.667v49.075h-42.667
	c-7.855,0-14.222,6.369-14.222,14.222v52.619v0.003v52.619c0,7.854,6.367,14.222,14.222,14.222h42.667v34.112h-42.667
	c-7.855,0-14.222,6.369-14.222,14.222v52.622c0,7.854,6.367,14.222,14.222,14.222h42.667v42.994h-27.733
	c-7.855,0-14.222,6.369-14.222,14.222s6.367,14.222,14.222,14.222h283.733c7.855,0,14.222-6.369,14.222-14.222
	S505.633,468.294,497.778,468.294z M213.333,98.914V74.736h85.333v24.178h-42.64c-0.01,0-0.018-0.001-0.027-0.001
	c-0.009,0-0.018,0.001-0.027,0.001H213.333z M213.333,281.675V257.5h85.333v24.175H213.333z M213.333,396.855v-24.178h85.333v24.178
	H213.333z"/>
<g>
</g>
<g>
</g>
<g>
</g>
<g>
</g>
<g>
</g>
<g>
</g>
<g>
</g>
<g>
</g>
<g>
</g>
<g>
</g>
<g>
</g>
<g>
</g>
<g>
</g>
<g>
</g>
<g>
</g>
</svg>
