<?xml version="1.0" encoding="iso-8859-1"?>
<!-- Generator: Adobe Illustrator 19.0.0, SVG Export Plug-In . SVG Version: 6.00 Build 0)  -->
<svg version="1.1" id="Layer_1" xmlns="http://www.w3.org/2000/svg" xmlns:xlink="http://www.w3.org/1999/xlink" x="0px" y="0px"
	 viewBox="0 0 512 512" style="enable-background:new 0 0 512 512;" xml:space="preserve">
<rect x="26.997" y="74.795" style="fill:#CEE8FA;" width="83.257" height="58.602"/>
<path style="fill:#2D527C;" d="M110.256,148.819H26.997c-8.517,0-15.422-6.906-15.422-15.422V74.795
	c0-8.516,6.904-15.422,15.422-15.422h83.257c8.517,0,15.422,6.906,15.422,15.422v58.602
	C125.678,141.913,118.773,148.819,110.256,148.819z M42.419,117.976h52.414V90.217H42.419V117.976z"/>
<g>
	<rect x="26.997" y="226.699" style="fill:#CEE8FA;" width="83.257" height="58.602"/>
	<rect x="26.997" y="378.602" style="fill:#CEE8FA;" width="83.257" height="58.602"/>
</g>
<g>
	<path style="fill:#2D527C;" d="M485.003,0H53.196c-8.517,0-15.422,6.906-15.422,15.422s6.904,15.422,15.422,15.422h416.386v450.313
		H68.617v-28.53h41.639c8.517,0,15.422-6.906,15.422-15.422v-58.602c0-8.516-6.904-15.422-15.422-15.422H68.617v-19.234
		c0-8.516-6.904-15.422-15.422-15.422s-15.422,6.906-15.422,15.422v19.234H26.999c-8.517,0-15.422,6.906-15.422,15.422v58.602
		c0,8.516,6.904,15.422,15.422,15.422h10.775v43.952c0,8.516,6.904,15.422,15.422,15.422h431.807
		c8.517,0,15.422-6.906,15.422-15.422V15.422C500.424,6.906,493.52,0,485.003,0z M94.834,421.783H42.419v-27.759h52.414v27.759
		H94.834z"/>
	<path style="fill:#2D527C;" d="M26.997,300.723h83.257c8.517,0,15.422-6.906,15.422-15.422v-58.602
		c0-8.516-6.904-15.422-15.422-15.422H68.616v-19.235c0-8.516-6.904-15.422-15.422-15.422s-15.422,6.906-15.422,15.422v19.235
		H26.997c-8.517,0-15.422,6.906-15.422,15.422v58.602C11.576,293.817,18.48,300.723,26.997,300.723z M94.834,269.88H42.419V242.12
		h52.414v27.759H94.834z"/>
</g>
<rect x="178.12" y="74.795" style="fill:#CEE8FA;" width="232.867" height="172.954"/>
<g>
	<path style="fill:#2D527C;" d="M410.99,263.174H178.122c-8.517,0-15.422-6.906-15.422-15.422V74.795
		c0-8.516,6.904-15.422,15.422-15.422H410.99c8.517,0,15.422,6.906,15.422,15.422v172.957
		C426.411,256.27,419.507,263.174,410.99,263.174z M193.544,232.331h202.024V90.217H193.544L193.544,232.331L193.544,232.331z"/>
	<path style="fill:#2D527C;" d="M409.437,306.892h-57.828c-8.517,0-15.422,6.906-15.422,15.422c0,8.516,6.904,15.422,15.422,15.422
		h42.407v81.735h-84.813v-97.157c0-8.516-6.904-15.422-15.422-15.422h-61.691c-8.517,0-15.422,6.906-15.422,15.422
		c0,8.516,6.904,15.422,15.422,15.422h46.27v81.735h-84.813v-97.157c0-8.516-6.904-15.422-15.422-15.422
		c-8.517,0-15.422,6.906-15.422,15.422v112.578c0,8.516,6.904,15.422,15.422,15.422H293.78h115.656
		c8.517,0,15.422-6.906,15.422-15.422V322.313C424.858,313.797,417.954,306.892,409.437,306.892z"/>
</g>
<g>
</g>
<g>
</g>
<g>
</g>
<g>
</g>
<g>
</g>
<g>
</g>
<g>
</g>
<g>
</g>
<g>
</g>
<g>
</g>
<g>
</g>
<g>
</g>
<g>
</g>
<g>
</g>
<g>
</g>
</svg>
