<?xml version="1.0" encoding="iso-8859-1"?>
<!-- Generator: Adobe Illustrator 19.0.0, SVG Export Plug-In . SVG Version: 6.00 Build 0)  -->
<svg version="1.1" id="Layer_1" xmlns="http://www.w3.org/2000/svg" xmlns:xlink="http://www.w3.org/1999/xlink" x="0px" y="0px"
	 viewBox="0 0 512 512" style="enable-background:new 0 0 512 512;" xml:space="preserve">
<polygon style="fill:#CEE8FA;" points="36.507,15.138 100.081,15.138 100.081,496.862 36.507,496.862 36.507,83.176 "/>
<path style="fill:#2D527C;" d="M303.382,302.259l-34.661-12.144l0.023-68.242l34.646-12.129c6.072-2.125,10.137-7.857,10.135-14.289
	l-0.012-89.345c0-4.015-1.597-7.866-4.436-10.704c-2.84-2.838-6.691-4.434-10.706-4.433l-45.868,0.009
	c-3.689,0-7.25,1.349-10.016,3.789l-55.192,48.718c-3.255,2.873-5.12,7.006-5.12,11.348l-0.02,202.297
	c0,4.015,1.594,7.866,4.434,10.706l43.695,43.695c5.912,5.91,15.497,5.91,21.41,0c5.912-5.912,5.912-15.497,0-21.41l-39.261-39.261
	l0.018-189.198l45.782-40.41l25.004-0.005l0.009,63.465l-34.64,12.127c-6.069,2.125-10.134,7.854-10.137,14.285l-0.029,89.719
	c-0.002,6.432,4.062,12.164,10.132,14.291l34.665,12.146l0.006,78.609c0,8.359,6.779,15.137,15.14,15.137
	c8.359,0,15.137-6.779,15.137-15.14l-0.008-89.345C313.515,310.114,309.451,304.385,303.382,302.259z"/>
<g>
	<rect x="402.833" y="40.743" style="fill:#CEE8FA;" width="72.655" height="102.564"/>
	<rect x="402.833" y="143.315" style="fill:#CEE8FA;" width="72.655" height="102.564"/>
</g>
<path style="fill:#2D527C;" d="M475.495,25.605h-57.517V15.138C417.978,6.779,411.199,0,402.839,0H100.081H36.507
	c-8.361,0-15.138,6.779-15.138,15.138v481.723c0,8.359,6.777,15.138,15.138,15.138h63.574h302.757
	c8.359,0,15.138-6.779,15.138-15.138v-67.072c0-8.359-6.779-15.138-15.138-15.138c-8.359,0-15.138,6.779-15.138,15.138v51.934
	h-272.48V30.277h272.48v10.467v102.564v102.566V348.43v0.008c0,8.359,6.779,15.138,15.138,15.138
	c8.359,0,15.138-6.779,15.138-15.138v-0.008v-87.418h42.378v87.426c0,8.359,6.779,15.138,15.138,15.138
	c8.359,0,15.138-6.779,15.138-15.138V245.873V143.308V40.743C490.633,32.384,483.854,25.605,475.495,25.605z M84.942,481.723H51.645
	V30.277h33.297V481.723z M460.356,55.882v72.287h-42.378V55.882H460.356z M417.978,230.735v-72.289h42.378v72.289H417.978z"/>
<g>
</g>
<g>
</g>
<g>
</g>
<g>
</g>
<g>
</g>
<g>
</g>
<g>
</g>
<g>
</g>
<g>
</g>
<g>
</g>
<g>
</g>
<g>
</g>
<g>
</g>
<g>
</g>
<g>
</g>
</svg>
