<?xml version="1.0" encoding="iso-8859-1"?>
<!-- Generator: Adobe Illustrator 19.0.0, SVG Export Plug-In . SVG Version: 6.00 Build 0)  -->
<svg version="1.1" id="Layer_1" xmlns="http://www.w3.org/2000/svg" xmlns:xlink="http://www.w3.org/1999/xlink" x="0px" y="0px"
	 viewBox="0 0 512 512" style="enable-background:new 0 0 512 512;" xml:space="preserve">
<g>
	<polygon style="fill:#CEE8FA;" points="125.816,131.034 125.816,464.851 212.432,464.851 212.432,212.094 	"/>
	<polygon style="fill:#CEE8FA;" points="299.046,464.851 385.661,464.851 385.661,267.362 299.046,116.421 	"/>
</g>
<path style="fill:#2D527C;" d="M498.526,451.377h-11.795V262.742c0-7.44-6.034-13.474-13.474-13.474
	c-7.44,0-13.474,6.034-13.474,13.474v188.636h-59.667V271.148l84.043-115.76c0.243-0.335,0.465-0.682,0.675-1.035
	c0.074-0.125,0.143-0.253,0.213-0.381c0.125-0.228,0.245-0.458,0.357-0.693c0.074-0.155,0.147-0.309,0.214-0.466
	c0.094-0.218,0.179-0.441,0.261-0.663c0.059-0.159,0.123-0.315,0.175-0.476c0.116-0.352,0.218-0.709,0.305-1.068
	c0.038-0.16,0.063-0.321,0.096-0.481c0.047-0.232,0.092-0.464,0.127-0.699c0.026-0.172,0.043-0.345,0.062-0.517
	c0.026-0.23,0.044-0.462,0.057-0.694c0.009-0.166,0.016-0.33,0.019-0.494c0.001-0.084,0.009-0.166,0.009-0.249V47.15
	c0-7.44-6.034-13.474-13.474-13.474h-86.614c-0.166,0-0.326,0.019-0.49,0.026c-0.164-0.005-0.325-0.026-0.49-0.026
	c-7.44,0-13.474,6.034-13.474,13.474v169.661l-60.192-104.897c-0.059-0.205-0.121-0.41-0.189-0.612
	c-0.05-0.147-0.101-0.292-0.156-0.438c-0.086-0.23-0.182-0.458-0.282-0.683c-0.061-0.14-0.119-0.28-0.186-0.419
	c-0.159-0.33-0.33-0.653-0.515-0.969c-0.071-0.123-0.154-0.241-0.229-0.362c-0.139-0.22-0.28-0.435-0.431-0.645
	c-0.089-0.125-0.182-0.249-0.276-0.372c-0.178-0.23-0.364-0.455-0.555-0.675c-0.07-0.081-0.137-0.163-0.21-0.243
	c-0.279-0.303-0.571-0.593-0.877-0.87c-0.015-0.013-0.028-0.03-0.043-0.043c-0.043-0.038-0.089-0.07-0.132-0.108
	c-0.253-0.222-0.515-0.434-0.785-0.637c-0.101-0.077-0.202-0.151-0.306-0.224c-0.245-0.174-0.497-0.337-0.755-0.494
	c-0.098-0.061-0.195-0.127-0.295-0.185c-0.326-0.187-0.662-0.362-1.005-0.524c-0.152-0.071-0.306-0.132-0.459-0.197
	c-0.147-0.062-0.291-0.131-0.442-0.189c-0.066-0.026-0.133-0.043-0.199-0.067c-0.171-0.062-0.342-0.119-0.515-0.174
	c-0.217-0.07-0.434-0.132-0.652-0.19c-0.159-0.042-0.317-0.086-0.477-0.123c-0.311-0.07-0.625-0.128-0.939-0.176
	c-0.067-0.009-0.135-0.027-0.202-0.035c-0.385-0.053-0.771-0.085-1.156-0.104c-0.119-0.005-0.238-0.005-0.357-0.008
	c-0.28-0.007-0.56-0.005-0.839,0.005c-0.131,0.004-0.261,0.011-0.392,0.02c-0.287,0.02-0.574,0.05-0.858,0.088
	c-0.108,0.015-0.216,0.024-0.323,0.04c-0.376,0.059-0.749,0.133-1.118,0.224c-0.117,0.028-0.23,0.066-0.348,0.097
	c-0.257,0.07-0.512,0.146-0.765,0.23c-0.155,0.053-0.307,0.109-0.459,0.167c-0.22,0.084-0.435,0.172-0.649,0.267
	c-0.15,0.066-0.298,0.129-0.446,0.199c-0.294,0.143-0.583,0.296-0.866,0.461c-0.131,0.075-0.259,0.156-0.387,0.237
	c-0.248,0.155-0.492,0.315-0.73,0.486c-0.121,0.088-0.24,0.181-0.36,0.272c-0.217,0.167-0.428,0.341-0.635,0.521
	c-0.101,0.089-0.203,0.175-0.303,0.268c-0.299,0.279-0.593,0.567-0.869,0.876l-63.115,70.307V60.624h73.141
	c7.44,0,13.474-6.034,13.474-13.474s-6.034-13.474-13.474-13.474h-86.614c-7.44,0-13.474,6.034-13.474,13.474v133.88l-59.14-55.347
	l-0.528-0.494V47.15c0-7.44-6.034-13.474-13.474-13.474c-0.078,0-0.152,0.011-0.229,0.012c-0.077-0.001-0.152-0.012-0.229-0.012
	H38.742c-7.44,0-13.474,6.034-13.474,13.474v131.874v196.208c0,7.44,6.034,13.474,13.474,13.474s13.474-6.034,13.474-13.474V186.94
	l59.667-33.258v297.694H38.742H13.474C6.034,451.376,0,457.409,0,464.85c0,7.44,6.034,13.474,13.474,13.474h485.053
	c7.44,0,13.474-6.034,13.474-13.474C512,457.409,505.967,451.377,498.526,451.377z M400.117,60.624h59.667v82.472l-59.667,82.184
	V60.624z M373.17,272.665v178.712h-60.65V166.973L373.17,272.665z M52.216,60.624h59.667v62.207l-59.667,33.258V60.624z
	 M139.29,162.097l59.141,55.347l0.528,0.494v233.438h-59.668v-289.28H139.29z M225.905,451.377V217.254l59.667-66.467v300.59
	L225.905,451.377L225.905,451.377z"/>
<g>
</g>
<g>
</g>
<g>
</g>
<g>
</g>
<g>
</g>
<g>
</g>
<g>
</g>
<g>
</g>
<g>
</g>
<g>
</g>
<g>
</g>
<g>
</g>
<g>
</g>
<g>
</g>
<g>
</g>
</svg>
