<?xml version="1.0" encoding="iso-8859-1"?>
<!-- Generator: Adobe Illustrator 19.0.0, SVG Export Plug-In . SVG Version: 6.00 Build 0)  -->
<svg version="1.1" id="Layer_1" xmlns="http://www.w3.org/2000/svg" xmlns:xlink="http://www.w3.org/1999/xlink" x="0px" y="0px"
	 viewBox="0 0 512 512" style="enable-background:new 0 0 512 512;" xml:space="preserve">
<g>
	<rect x="80" y="272" style="fill:#97DBFF;" width="96" height="224"/>
	<rect x="240" y="176" style="fill:#97DBFF;" width="96" height="320"/>
</g>
<path style="fill:#4E5F80;" d="M507.312,68.688C504.336,65.712,500.208,64,496,64h-96c-4.208,0-8.336,1.712-11.312,4.688
	C385.712,71.664,384,75.792,384,80v400h-32V176c0-4.208-1.712-8.336-4.688-11.312C344.336,161.712,340.208,160,336,160h-96
	c-4.208,0-8.336,1.712-11.312,4.688S224,171.792,224,176v304h-32V272c0-4.208-1.712-8.336-4.688-11.312
	C184.336,257.712,180.208,256,176,256H80c-4.208,0-8.336,1.712-11.312,4.688C65.712,263.664,64,267.792,64,272v208H32V16
	c0-8.832-7.168-16-16-16S0,7.168,0,16l0,0v480c0,4.208,1.712,8.336,4.688,11.312S11.792,512,16,512h64h96h64h96h64h96
	c2.112,0,4.208-0.432,6.144-1.232c1.904-0.8,3.616-1.952,5.056-3.376c0.032-0.032,0.08-0.048,0.112-0.08
	c0.016-0.016,0.032-0.064,0.048-0.08c1.44-1.456,2.592-3.168,3.392-5.088c0.816-1.936,1.248-4.032,1.248-6.144V80
	C512,75.792,510.288,71.664,507.312,68.688z M160,480H96V288h64V480z M320,480h-64V192h64V480z M480,480h-64V96h64V480z"/>
<g>
</g>
<g>
</g>
<g>
</g>
<g>
</g>
<g>
</g>
<g>
</g>
<g>
</g>
<g>
</g>
<g>
</g>
<g>
</g>
<g>
</g>
<g>
</g>
<g>
</g>
<g>
</g>
<g>
</g>
</svg>
