<?xml version="1.0" encoding="iso-8859-1"?>
<!-- Generator: Adobe Illustrator 19.0.0, SVG Export Plug-In . SVG Version: 6.00 Build 0)  -->
<svg version="1.1" id="Layer_1" xmlns="http://www.w3.org/2000/svg" xmlns:xlink="http://www.w3.org/1999/xlink" x="0px" y="0px"
	 viewBox="0 0 511.997 511.997" style="enable-background:new 0 0 511.997 511.997;" xml:space="preserve">
<path style="fill:#2D527C;" d="M268.971,217.454v-46.508c18.563,3.256,21.355,13.546,21.775,19.596
	c0.108,1.551,1.388,2.748,2.942,2.748h20.275c1.703,0,3.043-1.442,2.956-3.142c-1.316-25.508-18.8-41.921-47.948-45.607v-15.637
	c0-1.63-1.321-2.951-2.951-2.951h-20.275c-1.63,0-2.951,1.321-2.951,2.951v15.641c-30.328,3.835-48.027,21.447-48.027,48.749
	s17.701,44.912,48.027,48.747v46.508c-18.563-3.256-21.355-13.546-21.775-19.596c-0.108-1.551-1.388-2.748-2.942-2.748h-20.275
	c-1.703,0-3.043,1.442-2.956,3.142c1.316,25.508,18.8,41.921,47.948,45.607v15.641c0,1.63,1.321,2.951,2.951,2.951h20.275
	c1.63,0,2.951-1.321,2.951-2.951v-15.641c30.328-3.835,48.027-21.447,48.027-48.749C316.999,238.9,299.299,221.288,268.971,217.454z
	 M242.794,215.636c-21.845-3.83-21.85-17.403-21.85-22.344c0-4.942,0.005-18.514,21.85-22.346V215.636z M268.971,288.548v-44.692
	c21.845,3.83,21.85,17.404,21.85,22.346C290.821,271.144,290.816,284.717,268.971,288.548z"/>
<path style="fill:#CEE8FA;" d="M126.639,148.871c-11.584,8.705-25.952,13.879-41.472,13.879l0,0
	c-38.109,0-69.288-31.18-69.288-69.288V415.9c0,38.109,31.18,69.288,69.288,69.288l0,0c15.52,0,29.889-5.173,41.472-13.879V148.871z
	"/>
<path style="fill:#2D527C;" d="M294.927,402.153H142.499V148.871c0-6.009-3.397-11.503-8.773-14.188
	c-5.375-2.683-11.804-2.1-16.614,1.51c-9.311,6.997-20.359,10.696-31.946,10.696c-29.461,0-53.427-23.967-53.427-53.427
	c0-0.308-0.029-0.609-0.046-0.912c2.342-27.894,25.776-49.88,54.266-49.88c8.758,0,15.859-7.102,15.859-15.859
	s-7.102-15.859-15.859-15.859C38.429,10.949,0,49.876,0,97.404c0,0.939,0.019,2.487,0.019,2.487V415.9
	c0,46.95,38.197,85.146,85.148,85.146c18.514,0,36.15-5.9,50.999-17.06c3.987-2.996,6.331-7.692,6.331-12.678v-37.436h152.428
	c8.758,0,15.859-7.102,15.859-15.859C310.785,409.255,303.685,402.153,294.927,402.153z M110.78,462.736
	c-7.828,4.33-16.554,6.591-25.611,6.591h-0.003c-29.461,0-53.427-23.967-53.427-53.427V159.713
	c14.621,11.814,33.211,18.895,53.429,18.895c8.805,0,17.41-1.334,25.611-3.933v288.061H110.78z"/>
<path style="fill:#CEE8FA;" d="M426.852,164.353L426.852,164.353c-15.636,0-30.1-5.256-41.728-14.078v320.833
	c11.628,8.823,26.092,14.078,41.728,14.078l0,0c38.109,0,69.288-31.18,69.288-69.288V95.065
	C496.141,133.173,464.961,164.353,426.852,164.353z"/>
<path style="fill:#2D527C;" d="M511.903,93.35c-1.992-45.774-39.841-82.401-86.096-82.401H160.775
	c-8.758,0-15.859,7.102-15.859,15.859s7.102,15.859,15.859,15.859h265.032c29.689,0,53.889,23.878,54.447,53.435
	c-0.558,28.982-24.289,52.39-53.402,52.39c-11.669,0-22.784-3.752-32.141-10.853c-4.797-3.643-11.244-4.249-16.64-1.572
	c-5.394,2.679-8.807,8.182-8.807,14.205V471.11c0,4.961,2.322,9.636,6.274,12.635c14.921,11.32,32.664,17.303,51.312,17.303
	c46.95,0,85.146-38.197,85.146-85.146v-86.16V97.142C512,97.142,511.964,93.913,511.903,93.35z M480.281,415.9
	c0,29.46-23.967,53.427-53.427,53.427c-9.156,0-17.974-2.312-25.868-6.739V176.197c8.277,2.655,16.968,4.016,25.868,4.016
	c20.216,0,38.808-7.081,53.427-18.895V329.74V415.9z"/>
<g>
</g>
<g>
</g>
<g>
</g>
<g>
</g>
<g>
</g>
<g>
</g>
<g>
</g>
<g>
</g>
<g>
</g>
<g>
</g>
<g>
</g>
<g>
</g>
<g>
</g>
<g>
</g>
<g>
</g>
</svg>
