<?xml version="1.0" encoding="iso-8859-1"?>
<!-- Generator: Adobe Illustrator 19.0.0, SVG Export Plug-In . SVG Version: 6.00 Build 0)  -->
<svg version="1.1" id="Layer_1" xmlns="http://www.w3.org/2000/svg" xmlns:xlink="http://www.w3.org/1999/xlink" x="0px" y="0px"
	 viewBox="0 0 512 512" style="enable-background:new 0 0 512 512;" xml:space="preserve">
<g>
	<path style="fill:#97DBFF;" d="M304,256v32c0,17.664-14.32,32-32,32h-32c-17.664,0-32-14.336-32-32v-32H16v192
		c0,17.664,14.32,32,32,32h416c17.68,0,32-14.336,32-32V256H304z"/>
	<path style="fill:#97DBFF;" d="M464,128H48c-17.68,0-32,14.32-32,32v96h480v-96C496,142.32,481.68,128,464,128z"/>
</g>
<path style="fill:#4E5F80;" d="M464,112h-80V64c-0.016-26.512-21.488-47.984-48-48H176c-26.512,0.016-47.984,21.488-48,48v48H48
	c-26.512,0.016-47.984,21.488-48,48v96v192c0.016,26.512,21.488,48,48,48h416c26.512,0,47.984-21.488,48-48V256v-96
	C511.984,133.488,490.512,112.016,464,112z M160,64c0.016-8.832,7.168-16,16-16h160c8.832,0,15.984,7.168,16,16v48H160V64z M480,448
	c-0.016,8.832-7.168,15.984-16,16H48c-8.832-0.016-15.984-7.168-16-16V272h160v16c0,3.312,0.336,6.544,0.976,9.68
	c2.56,12.496,9.968,23.216,20.176,30.128C220.816,332.976,230.048,336,240,336h32c12.672,0,24.112-5.008,32.704-13.04
	c0.384-0.368,0.864-0.64,1.248-1.024c3.168-3.168,5.696-6.88,7.888-10.832c1.168-2.112,2.224-4.272,3.072-6.56
	C318.8,299.376,320,293.84,320,288v-16h160V448z M224,288v-16h64v16c-0.016,8.832-7.168,15.984-16,16h-32
	C231.168,303.984,224.016,296.832,224,288z M480,240H32v-80c0.016-8.832,7.168-16,16-16h96l0,0l0,0h224l0,0l0,0h96
	c8.832,0,15.984,7.168,16,16V240z"/>
<g>
</g>
<g>
</g>
<g>
</g>
<g>
</g>
<g>
</g>
<g>
</g>
<g>
</g>
<g>
</g>
<g>
</g>
<g>
</g>
<g>
</g>
<g>
</g>
<g>
</g>
<g>
</g>
<g>
</g>
</svg>
