<?xml version="1.0" encoding="iso-8859-1"?>
<!-- Generator: Adobe Illustrator 19.0.0, SVG Export Plug-In . SVG Version: 6.00 Build 0)  -->
<svg version="1.1" id="Layer_1" xmlns="http://www.w3.org/2000/svg" xmlns:xlink="http://www.w3.org/1999/xlink" x="0px" y="0px"
	 viewBox="0 0 511.999 511.999" style="enable-background:new 0 0 511.999 511.999;" xml:space="preserve">
<rect x="160.451" y="127.834" style="fill:#00E1FF;" width="70.665" height="70.665"/>
<path style="fill:#4E5F80;" d="M231.117,212.358h-70.665c-7.653,0-13.856-6.203-13.856-13.856v-70.665
	c0-7.653,6.203-13.856,13.856-13.856h70.665c7.653,0,13.856,6.203,13.856,13.856v70.665
	C244.973,206.154,238.77,212.358,231.117,212.358z M174.308,184.646h42.953v-42.953h-42.953L174.308,184.646L174.308,184.646z"/>
<rect x="280.886" y="127.834" style="fill:#00E1FF;" width="70.665" height="70.665"/>
<path style="fill:#4E5F80;" d="M351.548,212.358h-70.665c-7.653,0-13.856-6.203-13.856-13.856v-70.665
	c0-7.653,6.203-13.856,13.856-13.856h70.665c7.653,0,13.856,6.203,13.856,13.856v70.665
	C365.404,206.154,359.2,212.358,351.548,212.358z M294.739,184.646h42.953v-42.953h-42.953V184.646z"/>
<rect x="160.451" y="248.726" style="fill:#00E1FF;" width="70.665" height="70.665"/>
<path style="fill:#4E5F80;" d="M231.117,333.25h-70.665c-7.653,0-13.856-6.203-13.856-13.856v-70.665
	c0-7.653,6.203-13.856,13.856-13.856h70.665c7.653,0,13.856,6.203,13.856,13.856v70.665
	C244.973,327.047,238.77,333.25,231.117,333.25z M174.308,305.538h42.953v-42.953h-42.953L174.308,305.538L174.308,305.538z"/>
<rect x="280.886" y="248.726" style="fill:#00E1FF;" width="70.665" height="70.665"/>
<path style="fill:#4E5F80;" d="M351.548,333.25h-70.665c-7.653,0-13.856-6.203-13.856-13.856v-70.665
	c0-7.653,6.203-13.856,13.856-13.856h70.665c7.653,0,13.856,6.203,13.856,13.856v70.665
	C365.404,327.047,359.2,333.25,351.548,333.25z M294.739,305.538h42.953v-42.953h-42.953V305.538z"/>
<rect x="172.866" y="13.856" style="fill:#00E1FF;" width="166.27" height="56.125"/>
<path style="fill:#4E5F80;" d="M501.497,371.455l-40.165-41.594c-5.315-5.506-14.087-5.659-19.592-0.342
	c-5.505,5.315-5.657,14.087-0.342,19.592l36.276,37.567v97.61h-62.329V69.98c0-7.653-6.203-13.856-13.856-13.856h-48.5V13.856
	C352.989,6.203,346.786,0,339.133,0h-166.27c-7.653,0-13.856,6.203-13.856,13.856v42.269h-48.498
	c-7.653,0-13.856,6.203-13.856,13.856v414.307H34.324v-97.61L70.6,349.109c5.315-5.505,5.163-14.276-0.342-19.592
	c-5.504-5.315-14.276-5.161-19.592,0.342l-40.164,41.595c-2.494,2.583-3.889,6.033-3.889,9.624v117.064
	c0,7.653,6.203,13.856,13.856,13.856h471.063c7.653,0,13.856-6.203,13.856-13.856V381.079
	C505.387,377.487,503.993,374.037,501.497,371.455z M186.72,27.712h138.558v28.413H186.72V27.712z M124.365,83.836h48.5h166.27h48.5
	v400.451H214.461v-100.81h83.077v61.757c0,7.653,6.203,13.856,13.856,13.856c7.653,0,13.856-6.203,13.856-13.856v-75.613
	c0-7.653-6.203-13.856-13.856-13.856H200.605c-7.653,0-13.856,6.203-13.856,13.856v114.665h-62.385V83.836z"/>
<g>
</g>
<g>
</g>
<g>
</g>
<g>
</g>
<g>
</g>
<g>
</g>
<g>
</g>
<g>
</g>
<g>
</g>
<g>
</g>
<g>
</g>
<g>
</g>
<g>
</g>
<g>
</g>
<g>
</g>
</svg>
