<?xml version="1.0" encoding="iso-8859-1"?>
<!-- Generator: Adobe Illustrator 19.0.0, SVG Export Plug-In . SVG Version: 6.00 Build 0)  -->
<svg version="1.1" id="Layer_1" xmlns="http://www.w3.org/2000/svg" xmlns:xlink="http://www.w3.org/1999/xlink" x="0px" y="0px"
	 viewBox="0 0 512 512" style="enable-background:new 0 0 512 512;" xml:space="preserve">
<path style="fill:#4E5F80;" d="M480,48c0-26.512-21.488-48-48-48H80C53.488,0,32,21.488,32,48v384c0,26.512,21.488,48,48,48h352
	c26.512,0,48-21.488,48-48V48z M448,432c-0.016,8.832-7.168,15.984-16,16H80c-8.832-0.016-15.984-7.168-16-16V48
	c0.016-8.832,7.168-16,16-16h352c8.832,0,15.984,7.168,16,16V432z"/>
<rect x="112" y="272" style="fill:#97DBFF;" width="288" height="128"/>
<path style="fill:#4E5F80;" d="M400,400v-16H128v-96h256v112H400v-16V400h16V272c0-4.208-1.712-8.336-4.688-11.312
	C408.336,257.712,404.208,256,400,256H112c-4.208,0-8.336,1.712-11.312,4.688C97.712,263.664,96,267.792,96,272v128
	c0,4.208,1.712,8.336,4.688,11.312C103.664,414.288,107.792,416,112,416h288c4.208,0,8.336-1.712,11.312-4.688
	C414.288,408.336,416,404.208,416,400H400z"/>
<rect x="112" y="80" style="fill:#97DBFF;" width="288" height="128"/>
<path style="fill:#4E5F80;" d="M400,208v-16H128V96h256v112H400v-16V208h16V80c0-4.208-1.712-8.336-4.688-11.312
	C408.336,65.712,404.208,64,400,64H112c-4.208,0-8.336,1.712-11.312,4.688C97.712,71.664,96,75.792,96,80v128
	c0,4.208,1.712,8.336,4.688,11.312C103.664,222.288,107.792,224,112,224h288c4.208,0,8.336-1.712,11.312-4.688
	C414.288,216.336,416,212.208,416,208H400z"/>
<path style="fill:#4E5F80;" d="M208,160h96c8.832,0,16-7.168,16-16s-7.168-16-16-16h-96c-8.832,0-16,7.168-16,16
	S199.168,160,208,160"/>
<path style="fill:#4E5F80;" d="M208,352h96c8.832,0,16-7.168,16-16s-7.168-16-16-16h-96c-8.832,0-16,7.168-16,16
	S199.168,352,208,352"/>
<g>
	<path style="fill:#4E5F80;" d="M112,448c-8.832,0-16,7.168-16,16v32c0,8.832,7.168,16,16,16s16-7.168,16-16v-32
		C128,455.168,120.832,448,112,448z"/>
	<path style="fill:#4E5F80;" d="M400,448c-8.832,0-16,7.168-16,16v32c0,8.832,7.168,16,16,16s16-7.168,16-16v-32
		C416,455.168,408.832,448,400,448z"/>
</g>
<g>
</g>
<g>
</g>
<g>
</g>
<g>
</g>
<g>
</g>
<g>
</g>
<g>
</g>
<g>
</g>
<g>
</g>
<g>
</g>
<g>
</g>
<g>
</g>
<g>
</g>
<g>
</g>
<g>
</g>
</svg>
