<?xml version="1.0" encoding="iso-8859-1"?>
<!-- Generator: Adobe Illustrator 19.0.0, SVG Export Plug-In . SVG Version: 6.00 Build 0)  -->
<svg version="1.1" id="Layer_1" xmlns="http://www.w3.org/2000/svg" xmlns:xlink="http://www.w3.org/1999/xlink" x="0px" y="0px"
	 viewBox="0 0 512 512" style="enable-background:new 0 0 512 512;" xml:space="preserve">
<g>
	<path style="fill:#97DBFF;" d="M48,464c0,17.664,14.32,32,32,32h352c17.68,0,32-14.336,32-32V176H48V464z"/>
</g>
<path style="fill:#4E5F80;" d="M112,320h32c8.832,0,16-7.168,16-16s-7.168-16-16-16h-32c-8.832,0-16,7.168-16,16
	S103.168,320,112,320"/>
<path style="fill:#4E5F80;" d="M112,256h32c8.832,0,16-7.168,16-16s-7.168-16-16-16h-32c-8.832,0-16,7.168-16,16
	S103.168,256,112,256"/>
<path style="fill:#4E5F80;" d="M208,256h32c8.832,0,16-7.168,16-16s-7.168-16-16-16h-32c-8.832,0-16,7.168-16,16
	S199.168,256,208,256"/>
<path style="fill:#4E5F80;" d="M304,256h32c8.832,0,16-7.168,16-16s-7.168-16-16-16h-32c-8.832,0-16,7.168-16,16
	S295.168,256,304,256"/>
<path style="fill:#4E5F80;" d="M112,384h32c8.832,0,16-7.168,16-16s-7.168-16-16-16h-32c-8.832,0-16,7.168-16,16
	S103.168,384,112,384"/>
<path style="fill:#4E5F80;" d="M112,448h32c8.832,0,16-7.168,16-16s-7.168-16-16-16h-32c-8.832,0-16,7.168-16,16
	S103.168,448,112,448"/>
<path style="fill:#4E5F80;" d="M208,320h32c8.832,0,16-7.168,16-16s-7.168-16-16-16h-32c-8.832,0-16,7.168-16,16
	S199.168,320,208,320"/>
<path style="fill:#4E5F80;" d="M208,384h32c8.832,0,16-7.168,16-16s-7.168-16-16-16h-32c-8.832,0-16,7.168-16,16
	S199.168,384,208,384"/>
<path style="fill:#4E5F80;" d="M208,448h32c8.832,0,16-7.168,16-16s-7.168-16-16-16h-32c-8.832,0-16,7.168-16,16
	S199.168,448,208,448"/>
<path style="fill:#4E5F80;" d="M304,320h32c8.832,0,16-7.168,16-16s-7.168-16-16-16h-32c-8.832,0-16,7.168-16,16
	S295.168,320,304,320"/>
<path style="fill:#4E5F80;" d="M304,384h32c8.832,0,16-7.168,16-16s-7.168-16-16-16h-32c-8.832,0-16,7.168-16,16
	S295.168,384,304,384"/>
<path style="fill:#4E5F80;" d="M304,448h32c8.832,0,16-7.168,16-16s-7.168-16-16-16h-32c-8.832,0-16,7.168-16,16
	S295.168,448,304,448"/>
<g>
	<path style="fill:#4E5F80;" d="M432,0H80C53.488,0.016,32.016,21.488,32,48v128v288c0.016,26.512,21.488,48,48,48h352
		c26.512,0,47.984-21.488,48-48V176l0,0V48C479.984,21.488,458.512,0.016,432,0z M432,480H80c-8.832-0.016-15.984-7.168-16-16V192
		h384v272C447.984,472.832,440.832,479.984,432,480z M448,160H64V48l0,0c0.016-8.832,7.168-16,16-16h352c8.832,0,15.984,7.168,16,16
		V160z"/>
	<path style="fill:#4E5F80;" d="M400,288c-8.832,0-16,7.168-16,16v128c0,8.832,7.168,16,16,16s16-7.168,16-16V304
		C416,295.168,408.832,288,400,288z"/>
</g>
<g>
</g>
<g>
</g>
<g>
</g>
<g>
</g>
<g>
</g>
<g>
</g>
<g>
</g>
<g>
</g>
<g>
</g>
<g>
</g>
<g>
</g>
<g>
</g>
<g>
</g>
<g>
</g>
<g>
</g>
</svg>
