<?xml version="1.0" encoding="iso-8859-1"?>
<!-- Generator: Adobe Illustrator 19.0.0, SVG Export Plug-In . SVG Version: 6.00 Build 0)  -->
<svg version="1.1" id="Layer_1" xmlns="http://www.w3.org/2000/svg" xmlns:xlink="http://www.w3.org/1999/xlink" x="0px" y="0px"
	 viewBox="0 0 512 512" style="enable-background:new 0 0 512 512;" xml:space="preserve">
<path style="fill:#97DBFF;" d="M464,80H48c-17.68,0-32,14.32-32,32v96h480v-96C496,94.32,481.68,80,464,80z"/>
<path style="fill:#4E5F80;" d="M464,80V64H48C21.488,64.016,0.016,85.488,0,112v96c0,4.208,1.712,8.336,4.688,11.312
	S11.792,224,16,224h480c4.208,0,8.336-1.712,11.312-4.688S512,212.208,512,208v-96c-0.016-26.512-21.488-47.984-48-48V80v16
	c8.832,0.016,15.984,7.168,16,16v80H32v-80c0.016-8.832,7.168-15.984,16-16h416V80z"/>
<g>
	<path style="fill:#4E5F80;" d="M464,64h-80V16c0-8.832-7.168-16-16-16s-16,7.168-16,16v48H160V16c0-8.832-7.168-16-16-16
		s-16,7.168-16,16v48H48C21.488,64.016,0.016,85.488,0,112v352c0.016,26.512,21.488,48,48,48h416c26.512,0,47.984-21.488,48-48V112
		C511.984,85.488,490.512,64.016,464,64z M480,464c-0.016,8.832-7.168,15.984-16,16H48c-8.832-0.016-15.984-7.168-16-16V112
		c0.016-8.832,7.168-16,16-16h80v16c0,8.832,7.168,16,16,16s16-7.168,16-16V96h192v16c0,8.832,7.168,16,16,16s16-7.168,16-16V96h80
		c8.832,0,15.984,7.168,16,16V464z"/>
	<path style="fill:#4E5F80;" d="M361.616,370.976C375.6,352.288,384,329.152,384,304c-0.016-61.856-50.144-111.984-112-112
		c-61.856,0.016-111.984,50.144-112,112c0.016,61.856,50.144,111.984,112,112c25.152,0,48.288-8.4,66.976-22.384l49.712,49.712
		c6.24,6.256,16.384,6.256,22.624,0c6.256-6.256,6.256-16.384,0-22.624L361.616,370.976z M272,384c-44.176-0.08-79.92-35.824-80-80
		c0.08-44.176,35.824-79.92,80-80c44.176,0.08,79.92,35.824,80,80C351.92,348.176,316.176,383.92,272,384z"/>
</g>
<g>
</g>
<g>
</g>
<g>
</g>
<g>
</g>
<g>
</g>
<g>
</g>
<g>
</g>
<g>
</g>
<g>
</g>
<g>
</g>
<g>
</g>
<g>
</g>
<g>
</g>
<g>
</g>
<g>
</g>
</svg>
