<?xml version="1.0" encoding="iso-8859-1"?>
<!-- Generator: Adobe Illustrator 19.0.0, SVG Export Plug-In . SVG Version: 6.00 Build 0)  -->
<svg version="1.1" id="Layer_1" xmlns="http://www.w3.org/2000/svg" xmlns:xlink="http://www.w3.org/1999/xlink" x="0px" y="0px"
	 viewBox="0 0 476.336 476.336" style="enable-background:new 0 0 476.336 476.336;" xml:space="preserve">
<path style="fill:#4E5F80;" d="M443.52,262.504L213.824,32.808c-6.256-6.256-16.384-6.256-22.624,0
	c-6.256,6.256-6.256,16.384,0,22.624l229.696,229.696c15.648,15.664,23.408,36.048,23.424,56.576
	c-0.016,20.528-7.776,40.912-23.44,56.576c-15.664,15.648-36.048,23.408-56.56,23.424c-20.528-0.016-40.912-7.776-56.56-23.424
	L46.064,136.568c-9.408-9.408-14.048-21.6-14.064-33.936c0.016-12.336,4.656-24.528,14.048-33.936
	C55.472,59.288,67.664,54.648,80,54.632c12.336,0.016,24.528,4.656,33.936,14.064l248.448,248.448
	c3.152,3.168,4.672,7.168,4.688,11.312c-0.016,4.144-1.536,8.144-4.688,11.312c-3.168,3.152-7.168,4.672-11.312,4.688
	c-4.144-0.016-8.144-1.536-11.312-4.688l-219.2-219.2c-6.24-6.24-16.368-6.24-22.624,0c-6.256,6.256-6.256,16.384,0,22.624
	l219.184,219.2c9.328,9.344,21.712,14.08,33.936,14.064c12.224,0.016,24.608-4.72,33.936-14.064
	c9.344-9.328,14.08-21.712,14.064-33.936c0.016-12.224-4.72-24.608-14.064-33.936L136.56,46.056
	C120.992,30.472,100.416,22.616,80,22.632c-20.416-0.016-40.992,7.84-56.576,23.44C7.84,61.64-0.016,82.216,0,102.632
	c-0.016,20.416,7.84,40.992,23.44,56.576l261.696,261.696c21.824,21.84,50.592,32.816,79.2,32.8c28.608,0.016,57.36-10.96,79.2-32.8
	c21.84-21.824,32.816-50.592,32.8-79.2C476.352,313.096,465.36,284.328,443.52,262.504z"/>
<g>
</g>
<g>
</g>
<g>
</g>
<g>
</g>
<g>
</g>
<g>
</g>
<g>
</g>
<g>
</g>
<g>
</g>
<g>
</g>
<g>
</g>
<g>
</g>
<g>
</g>
<g>
</g>
<g>
</g>
</svg>
