<?xml version="1.0" encoding="iso-8859-1"?>
<!-- Generator: Adobe Illustrator 19.0.0, SVG Export Plug-In . SVG Version: 6.00 Build 0)  -->
<svg version="1.1" id="Layer_1" xmlns="http://www.w3.org/2000/svg" xmlns:xlink="http://www.w3.org/1999/xlink" x="0px" y="0px"
	 viewBox="0 0 512 512" style="enable-background:new 0 0 512 512;" xml:space="preserve">
<path style="fill:#97DBFF;" d="M416,80h-64c17.68,0,32,14.32,32,32v32H128v-32c0-17.68,14.32-32,32-32H96c-17.68,0-32,14.32-32,32
	v352c0,17.664,14.32,32,32,32h320c17.68,0,32-14.336,32-32V112C448,94.32,433.68,80,416,80z"/>
<g>
	<path style="fill:#4E5F80;" d="M416,64h-64h-17.616C326.96,27.488,294.704,0,256,0c-38.704,0.016-70.976,27.488-78.384,64H160H96
		c-26.512,0.016-47.984,21.488-48,48v352c0.016,26.512,21.488,48,48,48h320c26.512,0,47.984-21.488,48-48V112
		C463.984,85.488,442.512,64.016,416,64z M203.312,91.312C206.288,88.336,208,84.208,208,80c0.048-26.512,21.504-47.952,48-48
		c26.496,0.048,47.952,21.504,48,48c0,4.208,1.712,8.336,4.688,11.312C311.664,94.288,315.792,96,320,96h32
		c1.6,0,3.04,0.48,4.496,0.912c0.56,0.16,1.2,0.128,1.728,0.352c5.744,2.432,9.76,8.112,9.776,14.736v16H144v-16
		c0-2.208,0.448-4.304,1.264-6.224c0.816-1.92,1.984-3.632,3.424-5.088c0.24-0.24,0.576-0.336,0.816-0.56
		c1.28-1.136,2.656-2.192,4.272-2.88c1.744-0.736,3.696-1.088,5.696-1.152c0.192,0,0.336-0.096,0.528-0.096l0,0l0,0h32
		C196.208,96,200.336,94.288,203.312,91.312z M432,464c-0.016,8.832-7.168,15.984-16,16H96c-8.832-0.016-15.984-7.168-16-16V112
		c0.016-8.832,7.168-16,16-16h18.944c-1.792,0-2.944,10.352-2.944,16v32c0,4.208,1.712,8.336,4.688,11.312
		C119.664,158.288,123.792,160,128,160h256c4.208,0,8.336-1.712,11.312-4.688C398.288,152.336,400,148.208,400,144v-32
		c0-2.88-0.32-5.68-0.848-8.416c-0.464-2.624-1.216-5.12-2.08-7.568V96H416l0,0c8.832,0.016,15.984,7.168,16,16V464z"/>
	<circle style="fill:#4E5F80;" cx="256" cy="80" r="16"/>
</g>
<g>
</g>
<g>
</g>
<g>
</g>
<g>
</g>
<g>
</g>
<g>
</g>
<g>
</g>
<g>
</g>
<g>
</g>
<g>
</g>
<g>
</g>
<g>
</g>
<g>
</g>
<g>
</g>
<g>
</g>
</svg>
