<?xml version="1.0" encoding="iso-8859-1"?>
<!-- Generator: Adobe Illustrator 19.0.0, SVG Export Plug-In . SVG Version: 6.00 Build 0)  -->
<svg version="1.1" id="Layer_1" xmlns="http://www.w3.org/2000/svg" xmlns:xlink="http://www.w3.org/1999/xlink" x="0px" y="0px"
	 viewBox="0 0 480 480" style="enable-background:new 0 0 480 480;" xml:space="preserve">
<path style="fill:#97DBFF;" d="M240,16C116.288,16,16,116.288,16,240s100.288,224,224,224s224-100.288,224-224S363.712,16,240,16z
	 M240,400c-88.224,0-160-71.776-160-160S151.776,80,240,80s160,71.776,160,160S328.224,400,240,400z"/>
<g>
	<path style="fill:#4E5F80;" d="M240,0C107.44,0.016,0.016,107.44,0,240c0.016,132.56,107.44,239.984,240,240
		c132.56-0.016,239.984-107.44,240-240C479.984,107.44,372.56,0.016,240,0z M387.072,387.072C349.392,424.736,297.488,448,240,448
		s-109.392-23.264-147.072-60.928C55.264,349.392,32,297.488,32,240S55.264,130.608,92.928,92.928C130.608,55.248,182.512,32,240,32
		s109.392,23.248,147.072,60.928C424.736,130.608,448,182.512,448,240S424.736,349.392,387.072,387.072z"/>
	<path style="fill:#4E5F80;" d="M240,64c-97.088,0.032-175.968,78.912-176,176c0.032,97.088,78.912,175.968,176,176
		c97.088-0.032,175.968-78.912,176-176C415.968,142.912,337.088,64.032,240,64z M341.776,341.776
		C315.632,367.872,279.728,384,240,384s-75.632-16.128-101.776-42.224C112.128,315.632,96,279.728,96,240
		s16.128-75.632,42.224-101.776C164.368,112.112,200.272,96,240,96c39.728,0.016,75.632,16.128,101.776,42.24
		C367.872,164.368,384,200.272,384,240S367.872,315.632,341.776,341.776z"/>
	<path style="fill:#4E5F80;" d="M240,64c-97.088,0.032-175.968,78.912-176,176c0.032,97.088,78.912,175.968,176,176
		c97.088-0.032,175.968-78.912,176-176C415.968,142.912,337.088,64.032,240,64z M341.776,341.776
		C315.632,367.872,279.728,384,240,384s-75.632-16.128-101.776-42.224C112.128,315.632,96,279.728,96,240
		s16.128-75.632,42.224-101.776C164.368,112.112,200.272,96,240,96c39.728,0.016,75.632,16.128,101.776,42.24
		C367.872,164.368,384,200.272,384,240S367.872,315.632,341.776,341.776z"/>
	<path style="fill:#4E5F80;" d="M224,80v160c0,4.208,1.712,8.336,4.688,11.312S235.792,256,240,256h96c8.832,0,16-7.168,16-16
		s-7.168-16-16-16h-80V80c0-8.832-7.168-16-16-16S224,71.168,224,80L224,80z"/>
</g>
<g>
</g>
<g>
</g>
<g>
</g>
<g>
</g>
<g>
</g>
<g>
</g>
<g>
</g>
<g>
</g>
<g>
</g>
<g>
</g>
<g>
</g>
<g>
</g>
<g>
</g>
<g>
</g>
<g>
</g>
</svg>
