<?xml version="1.0" encoding="iso-8859-1"?>
<!-- Generator: Adobe Illustrator 19.0.0, SVG Export Plug-In . SVG Version: 6.00 Build 0)  -->
<svg version="1.1" id="Layer_1" xmlns="http://www.w3.org/2000/svg" xmlns:xlink="http://www.w3.org/1999/xlink" x="0px" y="0px"
	 viewBox="0 0 512 512" style="enable-background:new 0 0 512 512;" xml:space="preserve">
<path style="fill:#97DBFF;" d="M400,304c0,53.024-42.976,96-96,96H144c-53.024,0-96-42.976-96-96V80h352V304z"/>
<path style="fill:#4E5F80;" d="M416,304v-48h16c44.192-0.016,79.984-35.808,80-80c0-4.384-0.352-8.832-1.088-13.312
	c-3.248-20.048-14.352-36.912-29.184-48.464c-14.864-11.6-33.552-18.208-53.152-18.224H416V80c0-4.208-1.712-8.336-4.688-11.312
	C408.336,65.712,404.208,64,400,64H48c-4.208,0-8.336,1.712-11.312,4.688C33.712,71.664,32,75.792,32,80v224
	c0.016,61.856,50.144,112,112,112H16c-8.832,0-16,7.168-16,16s7.168,16,16,16h416c8.832,0,16-7.168,16-16s-7.168-16-16-16H304
	C365.856,416,415.984,365.856,416,304z M416,128h12.576c12.288,0,24.304,4.256,33.456,11.44c9.184,7.216,15.424,16.96,17.296,28.384
	L480,176c-0.048,26.496-21.504,47.952-48,48h-16V128z M304,384H144c-44.176-0.08-79.92-35.824-80-80V96h320v208
	C383.92,348.176,348.176,383.92,304,384z"/>
<g>
</g>
<g>
</g>
<g>
</g>
<g>
</g>
<g>
</g>
<g>
</g>
<g>
</g>
<g>
</g>
<g>
</g>
<g>
</g>
<g>
</g>
<g>
</g>
<g>
</g>
<g>
</g>
<g>
</g>
</svg>
