<?xml version="1.0" encoding="iso-8859-1"?>
<!-- Generator: Adobe Illustrator 19.0.0, SVG Export Plug-In . SVG Version: 6.00 Build 0)  -->
<svg version="1.1" id="Layer_1" xmlns="http://www.w3.org/2000/svg" xmlns:xlink="http://www.w3.org/1999/xlink" x="0px" y="0px"
	 viewBox="0 0 512.002 512.002" style="enable-background:new 0 0 512.002 512.002;" xml:space="preserve">
<g>
	<path style="fill:#CEE8FA;" d="M308.408,497.237H203.591V460.33c0-20.383,16.524-36.907,36.907-36.907H271.5
		c20.383,0,36.907,16.524,36.907,36.907V497.237z"/>
	<path style="fill:#CEE8FA;" d="M137.896,497.237H33.079V460.33c0-20.383,16.524-36.907,36.907-36.907h31.002
		c20.383,0,36.907,16.524,36.907,36.907V497.237z"/>
	<path style="fill:#CEE8FA;" d="M478.92,497.237H374.103V460.33c0-20.383,16.524-36.907,36.907-36.907h31.002
		c20.383,0,36.907,16.524,36.907,36.907V497.237z"/>
</g>
<g>
	<path style="fill:#2D527C;" d="M129.101,417.011c8.248-9.868,13.225-22.561,13.225-36.397c0-31.34-25.497-56.837-56.837-56.837
		s-56.837,25.497-56.837,56.837c0,13.837,4.975,26.529,13.225,36.397c-14.165,9.225-23.559,25.191-23.559,43.319v36.907
		c0,8.154,6.611,14.763,14.763,14.763h104.817c8.152,0,14.763-6.609,14.763-14.763V460.33
		C152.659,442.202,143.266,426.236,129.101,417.011z M85.487,353.303c15.06,0,27.311,12.252,27.311,27.311
		s-12.252,27.311-27.311,27.311s-27.311-12.252-27.311-27.311C58.176,365.554,70.427,353.303,85.487,353.303z M123.133,482.474
		H47.842V460.33c0-12.21,9.934-22.144,22.144-22.144h31.002c12.21,0,22.144,9.934,22.144,22.144V482.474z"/>
	<path style="fill:#2D527C;" d="M470.126,417.011c8.248-9.868,13.225-22.561,13.225-36.397c0-31.34-25.497-56.837-56.837-56.837
		s-56.837,25.497-56.837,56.837c0,13.837,4.975,26.529,13.225,36.397c-14.165,9.225-23.559,25.191-23.559,43.319v36.907
		c0,8.154,6.611,14.763,14.763,14.763h104.817c8.152,0,14.763-6.609,14.763-14.763V460.33
		C493.683,442.202,484.291,426.236,470.126,417.011z M426.511,353.303c15.06,0,27.311,12.252,27.311,27.311
		s-12.252,27.311-27.311,27.311c-15.06,0-27.311-12.252-27.311-27.311C399.2,365.554,411.452,353.303,426.511,353.303z
		 M464.157,482.474h-75.291V460.33c0-12.21,9.934-22.144,22.144-22.144h31.002c12.21,0,22.144,9.934,22.144,22.144V482.474z"/>
</g>
<path style="fill:#CEE8FA;" d="M241.399,117.893H282.7c26.901,0,48.71,21.808,48.71,48.71v71.999H180.59v-71.999
	c0-26.901,21.808-48.71,48.71-48.71h41.301"/>
<path style="fill:#2D527C;" d="M413.225,223.839h-39.122h-27.93v-57.236c0-24.391-13.837-45.6-34.066-56.223
	c5.263-7.9,8.34-17.376,8.34-27.561V49.846c0-8.154-6.611-14.763-14.763-14.763c-8.152,0-14.763,6.609-14.763,14.763v32.973
	c0,11.146-9.025,20.218-20.148,20.311h-29.545c-11.124-0.093-20.148-9.165-20.148-20.311V49.846c0-11.204,9.116-20.32,20.32-20.32
	h29.203c8.152,0,14.763-6.609,14.763-14.763S278.753,0,270.601,0h-29.203c-27.484,0-49.846,22.36-49.846,49.846v32.973
	c0,10.183,3.075,19.66,8.34,27.561c-20.23,10.623-34.066,31.832-34.066,56.223v57.236h-27.932H98.774
	c-8.152,0-14.763,6.609-14.763,14.763c0,8.154,6.611,14.763,14.763,14.763h26.474l27.604,177.733
	c1.118,7.193,7.309,12.497,14.589,12.497h24.185c-1.804,5.253-2.798,10.879-2.798,16.737v36.907c0,8.154,6.611,14.763,14.763,14.763
	h104.817c8.152,0,14.763-6.609,14.763-14.763v-36.907c0-5.858-0.994-11.484-2.798-16.737h24.185c7.28,0,13.471-5.304,14.589-12.497
	l27.604-177.733h26.474c8.152,0,14.763-6.609,14.763-14.763C427.988,230.448,421.378,223.839,413.225,223.839z M195.352,166.603
	c0-18.718,15.228-33.947,33.947-33.947h11.757c0.061,0,0.12,0.004,0.18,0.004v52.974c0,8.154,6.611,14.763,14.763,14.763
	c8.152,0,14.763-6.609,14.763-14.763V132.66c0.061,0,0.12-0.004,0.18-0.004H282.7c18.719,0,33.947,15.228,33.947,33.947v57.236
	H195.352L195.352,166.603L195.352,166.603z M255.999,407.926c-15.06,0-27.311-12.252-27.311-27.311
	c0-15.06,12.252-27.311,27.311-27.311c15.06,0,27.311,12.252,27.311,27.311C283.311,395.674,271.059,407.926,255.999,407.926z
	 M293.645,482.474h-75.291V460.33c0-12.21,9.934-22.144,22.144-22.144H271.5c12.21,0,22.144,9.934,22.144,22.144V482.474z
	 M331.912,414.068h-30.003c6.863-9.394,10.929-20.956,10.929-33.454c0-31.34-25.497-56.837-56.837-56.837
	s-56.837,25.497-56.837,56.837c0,12.498,4.064,24.061,10.929,33.454H180.09l-24.961-160.704h25.46H331.41h25.46L331.912,414.068z"/>
<g>
</g>
<g>
</g>
<g>
</g>
<g>
</g>
<g>
</g>
<g>
</g>
<g>
</g>
<g>
</g>
<g>
</g>
<g>
</g>
<g>
</g>
<g>
</g>
<g>
</g>
<g>
</g>
<g>
</g>
</svg>
