<?xml version="1.0" encoding="iso-8859-1"?>
<!-- Generator: Adobe Illustrator 19.0.0, SVG Export Plug-In . SVG Version: 6.00 Build 0)  -->
<svg version="1.1" id="Layer_1" xmlns="http://www.w3.org/2000/svg" xmlns:xlink="http://www.w3.org/1999/xlink" x="0px" y="0px"
	 viewBox="0 0 512 512" style="enable-background:new 0 0 512 512;" xml:space="preserve">
<g>
	<path style="fill:#97DBFF;" d="M326.24,60.592l-35.216-35.216c-12.496-12.496-32.752-12.496-45.248,0l-45.248,45.248
		c-12.496,12.496-12.496,32.752,0,45.264l35.216,35.216c-11.216,42.624-0.688,89.824,32.672,123.184L449.424,93.264
		C416.064,59.904,368.864,49.376,326.24,60.592z"/>
	<path style="fill:#97DBFF;" d="M348.96,496c-7.824-54.208-54.016-96-110.384-96s-102.56,41.792-110.384,96H348.96z"/>
</g>
<path style="fill:#4E5F80;" d="M465.424,93.264c0-4.208-1.712-8.336-4.688-11.312c-27.92-27.936-64.624-41.712-101.12-41.68
	c-9.408,0-18.768,1.216-28.048,3.008l-29.216-29.216C293.008,4.72,280.624-0.016,268.4,0c-12.24-0.016-24.608,4.72-33.952,14.064
	L189.2,59.312c-9.344,9.328-14.08,21.712-14.064,33.936c-0.016,12.224,4.72,24.608,14.064,33.936l3.312,3.312L98.608,224.4
	c-1.344-0.112-2.656-0.4-4.032-0.4c-26.512,0.016-47.984,21.488-48,48c0.016,26.512,21.488,47.984,48,48
	c7.072,0,13.728-1.616,19.776-4.368l77.344,77.344c-41.856,16.608-72.72,54.752-79.344,100.736
	c-0.656,4.592,0.704,9.264,3.744,12.768c3.024,3.504,7.456,5.52,12.096,5.52H348.96c4.624,0,9.056-2.032,12.096-5.52
	c3.024-3.504,4.4-8.176,3.744-12.768c-8.912-61.904-61.728-109.68-126.224-109.712c-3.424,0-6.784,0.208-10.128,0.464
	l-91.104-91.104c3.232-6.448,5.232-13.632,5.232-21.36c0-12.816-5.104-24.4-13.296-33.008l85.856-85.856l3.28,3.28
	c-1.808,9.264-3.008,18.64-3.008,28.048c-0.032,36.496,13.744,73.2,41.68,101.12c2.976,2.976,7.104,4.688,11.312,4.688
	c4.208,0,8.336-1.712,11.312-4.688l35.088-35.088c13.328,8.816,28.768,13.264,44.112,13.264c20.416,0.016,40.992-7.84,56.56-23.424
	l-11.312-11.312l11.312,11.312c15.584-15.584,23.456-36.144,23.424-56.576c0.016-15.344-4.432-30.784-13.264-44.112l35.088-35.088
	C463.712,101.584,465.424,97.472,465.424,93.264z M94.576,288c-8.832-0.016-15.984-7.168-16-16c0.016-8.832,7.168-15.984,16-16
	c8.832,0.016,15.984,7.168,16,16C110.56,280.832,103.408,287.984,94.576,288z M233.632,416.448c1.664-0.08,3.248-0.448,4.944-0.448
	c41.68-0.016,76.768,26.736,89.92,64h-179.84c10.992-31.136,37.36-54.8,70.064-61.744
	C223.6,420.272,229.136,419.488,233.632,416.448z M392.848,217.712c-9.424,9.408-21.6,14.048-33.936,14.064
	c-7.088-0.016-14.064-1.728-20.56-4.816l63.728-63.728c3.088,6.496,4.8,13.456,4.816,20.56
	C406.896,196.096,402.256,208.288,392.848,217.712z M392.848,127.2l-90.512,90.512l-33.024,33.024
	c-14.592-19.584-21.888-42.768-21.904-66.272c0-9.84,1.28-19.696,3.792-29.28c1.456-5.536-0.112-11.344-4.16-15.392l-35.216-35.216
	c-3.152-3.168-4.672-7.168-4.688-11.312c0.016-4.144,1.536-8.144,4.688-11.312l45.264-45.264c3.168-3.152,7.168-4.672,11.312-4.688
	c4.144,0.016,8.144,1.536,11.312,4.688l35.216,35.216c4.048,4.048,9.872,5.616,15.392,4.16c9.584-2.528,19.44-3.792,29.28-3.792
	c23.504,0.016,46.688,7.312,66.272,21.904L392.848,127.2z"/>
<g>
</g>
<g>
</g>
<g>
</g>
<g>
</g>
<g>
</g>
<g>
</g>
<g>
</g>
<g>
</g>
<g>
</g>
<g>
</g>
<g>
</g>
<g>
</g>
<g>
</g>
<g>
</g>
<g>
</g>
</svg>
