<?xml version="1.0" encoding="iso-8859-1"?>
<!-- Generator: Adobe Illustrator 19.0.0, SVG Export Plug-In . SVG Version: 6.00 Build 0)  -->
<svg version="1.1" id="Layer_1" xmlns="http://www.w3.org/2000/svg" xmlns:xlink="http://www.w3.org/1999/xlink" x="0px" y="0px"
	 viewBox="0 0 512 512" style="enable-background:new 0 0 512 512;" xml:space="preserve">
<path style="fill:#97DBFF;" d="M464,64H48c-8.832,0-16.832,3.584-22.624,9.376l208,208c12.496,12.496,32.752,12.496,45.248,0
	l208-208C480.832,67.584,472.832,64,464,64z"/>
<path style="fill:#4E5F80;" d="M497.952,62.064L497.952,62.064c-2.768-2.768-5.968-5.056-9.344-7.088
	c-4.576-2.752-9.536-4.912-14.944-6.016C470.528,48.336,467.296,48,464,48H48c-3.312,0-6.544,0.336-9.664,0.976
	c-5.808,1.184-11.168,3.52-16,6.592c-2.992,1.888-5.808,4.016-8.272,6.496l0,0C5.376,70.752,0,82.752,0,96v320
	c0,13.248,5.376,25.248,14.048,33.936c0,0,0,0,0.016,0.016c2.16,2.16,4.544,4.128,7.104,5.856c6.64,4.496,14.544,7.136,22.992,7.808
	C45.44,463.712,46.688,464,48,464h416c1.312,0,2.544-0.288,3.84-0.384c8.384-0.672,16.208-3.296,22.816-7.712
	c2.624-1.744,5.072-3.744,7.28-5.952v-0.016C506.624,441.248,512,429.248,512,416V96C512,82.752,506.624,70.752,497.952,62.064z
	 M457.376,80L267.312,270.064c-3.168,3.152-7.168,4.672-11.312,4.688c-4.144-0.016-8.144-1.536-11.312-4.688L54.624,80H457.376z
	 M32,409.376V102.624L185.376,256L32,409.376z M54.624,432L208,278.624l14.064,14.064c9.328,9.344,21.712,14.08,33.936,14.064
	c12.224,0.016,24.608-4.72,33.936-14.048L304,278.624L457.376,432H54.624z M480,409.376L326.624,256L480,102.624V409.376z"/>
<g>
</g>
<g>
</g>
<g>
</g>
<g>
</g>
<g>
</g>
<g>
</g>
<g>
</g>
<g>
</g>
<g>
</g>
<g>
</g>
<g>
</g>
<g>
</g>
<g>
</g>
<g>
</g>
<g>
</g>
</svg>
