<?xml version="1.0" encoding="iso-8859-1"?>
<!-- Generator: Adobe Illustrator 19.0.0, SVG Export Plug-In . SVG Version: 6.00 Build 0)  -->
<svg version="1.1" id="Layer_1" xmlns="http://www.w3.org/2000/svg" xmlns:xlink="http://www.w3.org/1999/xlink" x="0px" y="0px"
	 viewBox="0 0 512 512" style="enable-background:new 0 0 512 512;" xml:space="preserve">
<g>
	<path style="fill:#2D527C;" d="M436.211,129.527c-7.397,0-13.395,5.998-13.395,13.395v14.025l-90.631-90.631
		c-5.232-5.23-13.712-5.23-18.945,0c-5.231,5.231-5.231,13.713,0,18.945l90.631,90.631h-14.025c-7.397,0-13.395,5.998-13.395,13.395
		c0,7.397,5.998,13.395,13.395,13.395h46.364c7.397,0,13.395-5.998,13.395-13.395v-46.364
		C449.607,135.526,443.608,129.527,436.211,129.527z"/>
	<path style="fill:#2D527C;" d="M198.759,426.738l-90.63-90.631h14.024c7.398,0,13.395-5.999,13.395-13.395
		s-5.997-13.395-13.395-13.395H75.79c-7.398,0-13.395,5.998-13.395,13.395v46.364c0,7.397,5.997,13.395,13.395,13.395
		c7.398,0,13.395-5.998,13.395-13.395v-14.025l90.63,90.631c2.616,2.615,6.044,3.923,9.472,3.923s6.857-1.309,9.472-3.923
		C203.99,440.452,203.991,431.97,198.759,426.738z"/>
</g>
<circle style="fill:#CEE8FA;" cx="145.488" cy="138.402" r="75.631"/>
<g>
	<path style="fill:#2D527C;" d="M145.487,227.424c-23.778,0-46.134-9.26-62.948-26.074c-5.231-5.231-5.231-13.713,0-18.945
		c5.231-5.23,13.713-5.23,18.945,0c11.753,11.753,27.38,18.227,44.004,18.227s32.25-6.474,44.004-18.227
		c11.755-11.753,18.227-27.38,18.227-44.004s-6.474-32.25-18.227-44.004c-11.753-11.753-27.38-18.227-44.004-18.227
		s-32.25,6.474-44.004,18.227c-5.231,5.23-13.713,5.23-18.945,0c-5.231-5.231-5.231-13.713,0-18.945
		c16.814-16.814,39.17-26.074,62.948-26.074s46.134,9.26,62.948,26.074c16.814,16.815,26.074,39.17,26.074,62.948
		s-9.26,46.133-26.074,62.948C191.621,218.164,169.265,227.424,145.487,227.424z"/>
	<path style="fill:#2D527C;" d="M145.487,276.805c-76.315,0-138.402-62.088-138.402-138.402c0-36.969,14.396-71.725,40.537-97.866
		S108.519,0,145.487,0c76.315,0,138.402,62.088,138.402,138.402c0,7.397-5.999,13.395-13.395,13.395s-13.395-5.998-13.395-13.395
		c0-61.543-50.068-111.611-111.611-111.611c-29.812,0-57.84,11.61-78.921,32.69s-32.69,49.108-32.69,78.921
		c0,61.543,50.068,111.611,111.611,111.611c31.19,0,60.118-12.538,81.456-35.306c5.059-5.398,13.535-5.67,18.934-0.615
		c5.398,5.059,5.673,13.536,0.613,18.934C220.417,260.849,183.602,276.805,145.487,276.805z"/>
	<path style="fill:#2D527C;" d="M151.55,132.709v-21.537c8.597,1.507,9.89,6.273,10.084,9.075c0.05,0.718,0.643,1.273,1.362,1.273
		h9.39c0.789,0,1.409-0.667,1.369-1.455c-0.609-11.813-8.707-19.414-22.206-21.122V91.7c0-0.756-0.612-1.368-1.368-1.368h-9.389
		c-0.756,0-1.368,0.612-1.368,1.368v7.243c-14.045,1.776-22.242,9.933-22.242,22.577s8.197,20.799,22.242,22.575v21.539
		c-8.597-1.507-9.89-6.273-10.084-9.075c-0.05-0.718-0.643-1.273-1.362-1.273h-9.39c-0.789,0-1.409,0.667-1.369,1.455
		c0.609,11.813,8.707,19.414,22.206,21.122v7.243c0,0.755,0.612,1.368,1.368,1.368h9.389c0.756,0,1.368-0.612,1.368-1.368v-7.243
		c14.045-1.776,22.242-9.933,22.242-22.577C173.791,142.642,165.595,134.485,151.55,132.709z M139.425,131.868
		c-10.116-1.774-10.119-8.059-10.119-10.348c0-2.288,0.003-8.574,10.119-10.349V131.868z M151.55,165.635v-20.697
		c10.116,1.774,10.119,8.06,10.119,10.349C161.669,157.574,161.666,163.86,151.55,165.635z"/>
</g>
<circle style="fill:#CEE8FA;" cx="366.513" cy="373.599" r="75.631"/>
<g>
	<path style="fill:#2D527C;" d="M366.512,462.577c-22.798,0-45.593-8.679-62.948-26.033c-5.231-5.231-5.231-13.713,0-18.945
		c5.232-5.23,13.712-5.23,18.945,0c11.753,11.753,27.38,18.227,44.004,18.227c16.624,0,32.25-6.474,44.004-18.227
		c11.755-11.753,18.227-27.38,18.227-44.004s-6.474-32.25-18.227-44.004c-11.753-11.755-27.38-18.227-44.004-18.227
		c-16.624,0-32.25,6.474-44.004,18.227c-5.232,5.23-13.712,5.23-18.945,0c-5.231-5.231-5.231-13.713,0-18.945
		c34.71-34.708,91.186-34.708,125.896,0c16.814,16.815,26.074,39.17,26.074,62.948c0,23.778-9.26,46.133-26.074,62.948
		C412.106,453.9,389.31,462.577,366.512,462.577z"/>
	<path style="fill:#2D527C;" d="M366.512,512c-76.315,0-138.402-62.088-138.402-138.402c0-36.969,14.396-71.725,40.537-97.866
		c26.141-26.141,60.897-40.537,97.866-40.537c76.315,0,138.402,62.088,138.402,138.402c0,7.397-5.998,13.395-13.395,13.395
		s-13.395-5.998-13.395-13.395c0-61.543-50.068-111.611-111.611-111.611c-29.813,0-57.84,11.61-78.921,32.69
		c-21.08,21.08-32.69,49.108-32.69,78.921c0,61.543,50.068,111.611,111.611,111.611c31.19,0,60.117-12.539,81.455-35.308
		c5.059-5.4,13.536-5.672,18.935-0.615c5.398,5.058,5.673,13.535,0.615,18.935C441.443,496.043,404.627,512,366.512,512z"/>
	<path style="fill:#2D527C;" d="M400.137,382.757c-0.367-0.405-0.888-0.634-1.433-0.634h-8.686c-0.939,0-1.743,0.672-1.908,1.597
		c-0.908,5.081-2.171,8.97-3.871,11.902c-3.072,5.41-7.447,8.041-13.377,8.041c-6.504,0-11.228-2.505-14.455-7.684
		c-1.665-2.591-2.94-5.646-3.804-9.108h25.524c0.855,0,1.609-0.56,1.855-1.378l2.296-7.613c0.177-0.587,0.066-1.223-0.3-1.715
		c-0.366-0.492-0.943-0.782-1.555-0.782h-29.122c-0.001-0.244-0.001-0.489-0.001-0.731c0-1.417,0.027-2.679,0.079-3.816h26.796
		c0.859,0,1.615-0.565,1.858-1.389l2.246-7.613c0.173-0.587,0.059-1.22-0.307-1.709c-0.366-0.489-0.94-0.778-1.551-0.778H353.08
		c0.914-3.417,2.179-6.218,3.843-8.505c3.653-4.954,8.296-7.362,14.19-7.362c4.844,0,8.442,1.265,11.02,3.887
		c2.64,2.596,4.439,6.291,5.345,10.979c0.177,0.911,0.975,1.57,1.903,1.57h8.735c0.008,0,0.015,0,0.019,0
		c1.072,0,1.938-0.868,1.938-1.938c0-0.15-0.017-0.297-0.05-0.437c-0.62-6.954-3.362-13.24-8.152-18.689
		c-4.971-5.645-11.989-8.507-20.859-8.507c-10.41,0-18.688,4.351-24.602,12.925c-3.195,4.597-5.483,10-6.817,16.076h-9.724
		c-0.859,0-1.615,0.565-1.858,1.389l-2.246,7.613c-0.173,0.587-0.059,1.219,0.307,1.709c0.366,0.489,0.94,0.778,1.551,0.778h10.678
		c-0.025,0.672-0.038,1.342-0.038,2.007c0,0.849,0.016,1.699,0.047,2.541h-8.44c-0.857,0-1.613,0.564-1.858,1.386l-2.246,7.563
		c-0.174,0.587-0.062,1.22,0.304,1.711s0.942,0.778,1.553,0.778h11.801c1.553,8.889,4.813,15.996,9.698,21.129
		c5.546,5.903,12.499,8.896,20.668,8.896c9.484,0,17.119-3.645,22.692-10.829c4.591-5.886,7.333-13.212,8.151-21.773
		C400.685,383.701,400.506,383.161,400.137,382.757z"/>
</g>
<g>
</g>
<g>
</g>
<g>
</g>
<g>
</g>
<g>
</g>
<g>
</g>
<g>
</g>
<g>
</g>
<g>
</g>
<g>
</g>
<g>
</g>
<g>
</g>
<g>
</g>
<g>
</g>
<g>
</g>
</svg>
