<?xml version="1.0" encoding="iso-8859-1"?>
<!-- Generator: Adobe Illustrator 19.0.0, SVG Export Plug-In . SVG Version: 6.00 Build 0)  -->
<svg version="1.1" id="Layer_1" xmlns="http://www.w3.org/2000/svg" xmlns:xlink="http://www.w3.org/1999/xlink" x="0px" y="0px"
	 viewBox="0 0 512 512" style="enable-background:new 0 0 512 512;" xml:space="preserve">
<path style="fill:#97DBFF;" d="M192,16H64c-17.68,0-32,14.32-32,32v416c0,17.664,14.32,32,32,32h128c17.68,0,32-14.336,32-32V48
	C224,30.32,209.68,16,192,16z M128,432c-17.648,0-32-14.336-32-32s14.352-32,32-32c17.632,0,32,14.336,32,32S145.632,432,128,432z"
	/>
<path style="fill:#4E5F80;" d="M96,96h64c8.832,0,16-7.168,16-16s-7.168-16-16-16H96c-8.832,0-16,7.168-16,16S87.168,96,96,96"/>
<path style="fill:#4E5F80;" d="M96,160h64c8.832,0,16-7.168,16-16s-7.168-16-16-16H96c-8.832,0-16,7.168-16,16S87.168,160,96,160"/>
<path style="fill:#4E5F80;" d="M96,224h64c8.832,0,16-7.168,16-16s-7.168-16-16-16H96c-8.832,0-16,7.168-16,16S87.168,224,96,224"/>
<path style="fill:#97DBFF;" d="M448,16H320c-17.68,0-32,14.32-32,32v416c0,17.664,14.32,32,32,32h128c17.68,0,32-14.336,32-32V48
	C480,30.32,465.68,16,448,16z M384,432c-17.648,0-32-14.336-32-32s14.352-32,32-32c17.632,0,32,14.336,32,32S401.632,432,384,432z"
	/>
<g>
	<path style="fill:#4E5F80;" d="M192,0H64C37.488,0,16,21.488,16,48v416c0,26.512,21.488,48,48,48h128c26.512,0,48-21.488,48-48V48
		C240,21.488,218.512,0,192,0z M208,464c-0.016,8.832-7.168,15.984-16,16H64c-8.832-0.016-15.984-7.168-16-16V48
		c0.016-8.832,7.168-16,16-16h128l0,0c8.832,0.016,15.984,7.168,16,16V464z"/>
	<path style="fill:#4E5F80;" d="M128,352c-26.496,0.032-47.968,21.472-48,48c0.032,26.528,21.504,47.968,48,48
		c26.496-0.032,47.968-21.472,48-48C175.968,373.472,154.496,352.032,128,352z M128,416c-8.784-0.016-15.984-7.216-16-16
		c0.016-8.784,7.216-15.984,16-16c8.784,0.016,15.984,7.216,16,16C143.984,408.784,136.784,415.984,128,416z"/>
	<path style="fill:#4E5F80;" d="M384,352c-26.496,0.032-47.968,21.472-48,48c0.032,26.528,21.504,47.968,48,48
		c26.496-0.032,47.968-21.472,48-48C431.968,373.472,410.496,352.032,384,352z M384,416c-8.784-0.016-15.984-7.216-16-16
		c0.016-8.784,7.216-15.984,16-16c8.784,0.016,15.984,7.216,16,16C399.984,408.784,392.784,415.984,384,416z"/>
	<path style="fill:#4E5F80;" d="M448,0H320c-26.512,0-48,21.488-48,48v416c0,26.512,21.488,48,48,48h128c26.512,0,48-21.488,48-48
		V48C496,21.488,474.512,0,448,0z M464,464c-0.016,8.832-7.168,15.984-16,16H320c-8.832-0.016-15.984-7.168-16-16V48
		c0.016-8.832,7.168-16,16-16h128l0,0c8.832,0.016,15.984,7.168,16,16V464z"/>
</g>
<path style="fill:#4E5F80;" d="M352,96h64c8.832,0,16-7.168,16-16s-7.168-16-16-16h-64c-8.832,0-16,7.168-16,16S343.168,96,352,96"
	/>
<path style="fill:#4E5F80;" d="M352,160h64c8.832,0,16-7.168,16-16s-7.168-16-16-16h-64c-8.832,0-16,7.168-16,16
	S343.168,160,352,160"/>
<path style="fill:#4E5F80;" d="M352,224h64c8.832,0,16-7.168,16-16s-7.168-16-16-16h-64c-8.832,0-16,7.168-16,16
	S343.168,224,352,224"/>
<g>
</g>
<g>
</g>
<g>
</g>
<g>
</g>
<g>
</g>
<g>
</g>
<g>
</g>
<g>
</g>
<g>
</g>
<g>
</g>
<g>
</g>
<g>
</g>
<g>
</g>
<g>
</g>
<g>
</g>
</svg>
