<?xml version="1.0" encoding="iso-8859-1"?>
<!-- Generator: Adobe Illustrator 19.0.0, SVG Export Plug-In . SVG Version: 6.00 Build 0)  -->
<svg version="1.1" id="Layer_1" xmlns="http://www.w3.org/2000/svg" xmlns:xlink="http://www.w3.org/1999/xlink" x="0px" y="0px"
	 viewBox="0 0 512 512" style="enable-background:new 0 0 512 512;" xml:space="preserve">
<path style="fill:transparent" d="M438.624,134.624L322.192,18.192L320,19.104V112c0,17.68,14.32,32,32,32h82.736
	C436.608,139.472,436.752,139.152,438.624,134.624z"/>
<path style="fill:#354785" d="M448,123.328v-0.016L332.544,6.88c-3.44-3.456-7.728-5.072-12.416-4.592
	C315.648,0.928,311.504,0,306.736,0H96C69.488,0.016,48.016,21.488,48,48v416c0.016,26.512,21.488,48,48,48h320
	c26.512,0,47.984-21.488,48-48V157.264C464,144.528,464,132.336,448,123.328z M336,54.624L409.376,128H352
	c-8.832-0.016-15.984-7.168-16-16V54.624z M432,464c-0.016,8.832-7.168,15.984-16,16H96c-8.832-0.016-15.984-7.168-16-16V48
	c0.016-8.832,7.168-16,16-16h208v80c0.016,26.512,21.488,48,48,48h80V464z"/>
<path style="fill:white" d="M128,224h256c8.832,0,16-7.168,16-16s-7.168-16-16-16H128c-8.832,0-16,7.168-16,16
	S119.168,224,128,224"/>
<path style="fill:white" d="M128,288h256c8.832,0,16-7.168,16-16s-7.168-16-16-16H128c-8.832,0-16,7.168-16,16
	S119.168,288,128,288"/>
<path style="fill:white" d="M128,352h256c8.832,0,16-7.168,16-16s-7.168-16-16-16H128c-8.832,0-16,7.168-16,16
	S119.168,352,128,352"/>
<path style="fill:white" d="M128,416h128c8.832,0,16-7.168,16-16s-7.168-16-16-16H128c-8.832,0-16,7.168-16,16
	S119.168,416,128,416"/>
<g>
</g>
<g>
</g>
<g>
</g>
<g>
</g>
<g>
</g>
<g>
</g>
<g>
</g>
<g>
</g>
<g>
</g>
<g>
</g>
<g>
</g>
<g>
</g>
<g>
</g>
<g>
</g>
<g>
</g>
</svg>
