<?xml version="1.0" encoding="iso-8859-1"?>
<!-- Generator: Adobe Illustrator 19.0.0, SVG Export Plug-In . SVG Version: 6.00 Build 0)  -->
<svg version="1.1" id="Layer_1" xmlns="http://www.w3.org/2000/svg" xmlns:xlink="http://www.w3.org/1999/xlink" x="0px" y="0px"
	 viewBox="0 0 511.984 511.984" style="enable-background:new 0 0 511.984 511.984;" xml:space="preserve">
<path style="fill:#97DBFF;" d="M80,431.992v-96v-128c0-17.68,14.336-32,32-32h352v-32c0-17.68-14.32-32-32-32H176v-32
	c0-17.68-14.32-32-32-32H48c-17.68,0-32,14.32-32,32v32v320c0,17.664,14.32,32,32,32C65.6,463.992,80,449.592,80,431.992z"/>
<path style="fill:#4E5F80;" d="M480,162.936v-18.944c-0.016-26.512-21.488-47.984-48-48H192v-16c-0.016-26.512-21.488-47.984-48-48
	H48c-26.512,0.016-47.984,21.488-48,48v32v320c0.016,26.512,21.472,47.984,47.984,48l0,0h32h384c26.512-0.016,47.984-21.488,48-48
	v-224C512,187.112,498.608,169.544,480,162.936z M65.648,196.184C64.672,199.976,64,203.896,64,207.992v128v96
	c-0.016,8.688-7.312,15.984-16,16c-8.832-0.016-15.984-7.168-16-16v-320v-32c0.016-8.832,7.168-16,16-16h96
	c8.832,0,15.984,7.168,16,16v32c0,4.208,1.712,8.336,4.688,11.312s7.104,4.688,11.312,4.688h256c8.832,0.016,15.984,7.168,16,16v16
	H112c-9.952,0-19.184,3.024-26.832,8.192C75.552,174.68,68.576,184.632,65.648,196.184z M480,431.992
	c-0.016,8.832-7.168,15.984-16,16H93.04c1.792-5.024,2.944-10.352,2.96-16v-96v-128c0-3.088,1.12-5.824,2.64-8.272
	c1.744-2.784,4.08-5.168,7.136-6.464c1.92-0.816,4.016-1.264,6.224-1.264h352c8.832,0,15.984,7.168,16,16V431.992z"/>
<g>
</g>
<g>
</g>
<g>
</g>
<g>
</g>
<g>
</g>
<g>
</g>
<g>
</g>
<g>
</g>
<g>
</g>
<g>
</g>
<g>
</g>
<g>
</g>
<g>
</g>
<g>
</g>
<g>
</g>
</svg>
