<?xml version="1.0" encoding="iso-8859-1"?>
<!-- Generator: Adobe Illustrator 19.0.0, SVG Export Plug-In . SVG Version: 6.00 Build 0)  -->
<svg version="1.1" id="Layer_1" xmlns="http://www.w3.org/2000/svg" xmlns:xlink="http://www.w3.org/1999/xlink" x="0px" y="0px"
	 viewBox="0 0 512 512" style="enable-background:new 0 0 512 512;" xml:space="preserve">
<path style="fill:#97DBFF;" d="M416,144H96c-17.68,0-32-14.32-32-32s14.32-32,32-32h320c17.68,0,32,14.32,32,32S433.68,144,416,144z
	"/>
<g>
	<path style="fill:#4E5F80;" d="M336,208v224c0,8.832,7.168,16,16,16s16-7.168,16-16V208c0-8.832-7.168-16-16-16
		S336,199.168,336,208"/>
	<path style="fill:#4E5F80;" d="M240,208v224c0,8.832,7.168,16,16,16s16-7.168,16-16V208c0-8.832-7.168-16-16-16
		S240,199.168,240,208"/>
	<path style="fill:#4E5F80;" d="M144,208v224c0,8.832,7.168,16,16,16s16-7.168,16-16V208c0-8.832-7.168-16-16-16
		S144,199.168,144,208"/>
	<path style="fill:#4E5F80;" d="M416,64h-80V48c-0.016-26.512-21.488-47.984-48-48h-64c-26.512,0.016-47.984,21.488-48,48v16H96
		c-26.512,0.016-47.984,21.488-48,48c0,20.88,13.392,38.448,32,45.056V464c0.016,26.512,21.488,48,48,48h256l0,0
		c26.512-0.016,47.984-21.488,48-48V157.056c18.592-6.608,31.984-24.176,32-45.056C463.984,85.488,442.512,64.016,416,64z M208,48
		c0.016-8.832,7.168-16,16-16h64c8.832,0,15.984,7.168,16,16v16h-96V48z M400,464c-0.016,8.832-7.168,15.984-16,16H128
		c-8.832-0.016-15.984-7.168-16-16V160h288V464z M416,128H96c-8.832-0.016-15.984-7.168-16-16c0.016-8.832,7.168-16,16-16h96l0,0
		h128l0,0h96c8.832,0,15.984,7.168,16,16C431.984,120.832,424.832,127.984,416,128z"/>
</g>
<g>
</g>
<g>
</g>
<g>
</g>
<g>
</g>
<g>
</g>
<g>
</g>
<g>
</g>
<g>
</g>
<g>
</g>
<g>
</g>
<g>
</g>
<g>
</g>
<g>
</g>
<g>
</g>
<g>
</g>
</svg>
