<?xml version="1.0" encoding="iso-8859-1"?>
<!-- Generator: Adobe Illustrator 19.0.0, SVG Export Plug-In . SVG Version: 6.00 Build 0)  -->
<svg version="1.1" id="Layer_1" xmlns="http://www.w3.org/2000/svg" xmlns:xlink="http://www.w3.org/1999/xlink" x="0px" y="0px"
	 viewBox="0 0 512 512" style="enable-background:new 0 0 512 512;" xml:space="preserve">
<rect x="75.374" y="42.973" transform="matrix(-0.7071 -0.7071 0.7071 -0.7071 141.2102 376.4686)" style="fill:#CEE8FA;" width="146.4" height="232.032"/>
<g>
	<path style="fill:#2D527C;" d="M288.277,143.71l0.748-0.748l3.795-3.795l0.001-0.001l27.774-27.776l106.384,106.385l-21.864,21.866
		l-72.169-72.171c-5.772-5.771-15.129-5.772-20.906,0c-5.772,5.772-5.772,15.132,0,20.905l82.623,82.623
		c2.773,2.772,6.532,4.33,10.452,4.33c3.92,0,7.679-1.558,10.452-4.33l42.771-42.771c5.772-5.772,5.772-15.132,0-20.905
		L331.049,80.033c-2.773-2.772-6.532-4.33-10.452-4.33s-7.679,1.558-10.452,4.33l-27.776,27.776l-93.068-93.064
		c-5.771-5.772-15.132-5.772-20.905,0L4.329,178.813c-5.772,5.772-5.772,15.132,0,20.905l103.518,103.518
		c2.885,2.887,6.67,4.33,10.452,4.33c3.783,0,7.567-1.444,10.452-4.33L288.277,143.71L288.277,143.71z M118.299,271.878
		l-82.613-82.613L178.85,46.102l82.611,82.613L118.299,271.878z"/>
	<path style="fill:#2D527C;" d="M512,352.65c0-3.92-1.558-7.681-4.33-10.452l-54.244-54.244c-5.774-5.772-15.131-5.772-20.906,0
		c-5.772,5.772-5.772,15.132,0,20.906l43.792,43.792l-17.841,17.84L327.022,239.044c-5.774-5.772-15.131-5.772-20.906,0
		c-5.772,5.772-5.772,15.132,0,20.906l141.901,141.901l15.211,15.211l-17.841,17.841l-15.197-15.197
		c-0.004-0.004-0.007-0.009-0.012-0.013L288.277,277.791c-2.885-2.885-6.668-4.328-10.452-4.328c-3.31,0-6.621,1.104-9.33,3.314
		c-0.387,0.316-0.763,0.653-1.123,1.014c-5.772,5.772-5.772,15.132,0,20.906l131.448,131.448l-17.84,17.841L249.53,316.538
		c-3.335-3.335-7.866-4.732-12.211-4.213c-2.599,0.31-5.126,1.308-7.298,2.996c-0.09,0.069-0.185,0.129-0.273,0.201
		c-0.115,0.095-0.222,0.204-0.334,0.302c-0.266,0.231-0.535,0.458-0.788,0.712l0,0l0,0c-0.278,0.278-0.529,0.571-0.781,0.863
		c-0.075,0.087-0.161,0.168-0.234,0.259c-0.177,0.216-0.33,0.445-0.492,0.67c-0.129,0.176-0.269,0.347-0.387,0.528
		c-0.074,0.112-0.133,0.231-0.203,0.343c-0.188,0.302-0.377,0.603-0.541,0.917c-0.065,0.123-0.114,0.253-0.174,0.377
		c-0.152,0.309-0.306,0.618-0.433,0.934c-0.513,1.265-0.835,2.59-0.983,3.929c-0.007,0.072-0.024,0.145-0.031,0.217
		c-0.407,4.241,1.014,8.622,4.262,11.87L339.246,448.06l-17.841,17.84l-145.93-145.932c-5.772-5.772-15.132-5.772-20.906,0
		c-5.774,5.772-5.772,15.132,0,20.906l156.38,156.38c2.773,2.772,6.532,4.33,10.452,4.33c3.92,0,7.679-1.558,10.452-4.33
		l28.291-28.293l10.38,10.38c2.887,2.887,6.67,4.33,10.452,4.33s7.565-1.444,10.452-4.33l28.293-28.293l15.209,15.209
		c2.887,2.887,6.67,4.33,10.452,4.33c3.783,0,7.565-1.444,10.452-4.33l38.747-38.745c2.772-2.772,4.33-6.532,4.33-10.452
		s-1.558-7.681-4.33-10.452l-15.211-15.211l28.293-28.293C510.442,360.329,512,356.57,512,352.65z"/>
</g>
<g>
</g>
<g>
</g>
<g>
</g>
<g>
</g>
<g>
</g>
<g>
</g>
<g>
</g>
<g>
</g>
<g>
</g>
<g>
</g>
<g>
</g>
<g>
</g>
<g>
</g>
<g>
</g>
<g>
</g>
</svg>
