<?xml version="1.0" encoding="iso-8859-1"?>
<!-- Generator: Adobe Illustrator 19.0.0, SVG Export Plug-In . SVG Version: 6.00 Build 0)  -->
<svg version="1.1" id="Layer_1" xmlns="http://www.w3.org/2000/svg" xmlns:xlink="http://www.w3.org/1999/xlink" x="0px" y="0px"
	 viewBox="0 0 512 512" style="enable-background:new 0 0 512 512;" xml:space="preserve">
<path style="fill:#97DBFF;" d="M278.624,422.624c-12.496-12.496-32.752-12.496-45.248,0L160,496h12.144h167.712H352L278.624,422.624
	z"/>
<path style="fill:#4E5F80;" d="M278.624,422.624l11.312-11.312c-9.328-9.344-21.712-14.08-33.936-14.064
	c-12.224-0.016-24.608,4.72-33.936,14.064l-73.376,73.376c-4.576,4.576-5.952,11.456-3.472,17.44
	c2.48,5.968,8.32,9.872,14.784,9.872h12.144h167.712H352c6.464,0,12.304-3.904,14.784-9.872c2.48-5.984,1.104-12.864-3.472-17.44
	l-73.376-73.376L278.624,422.624l-11.312,11.312l73.376,73.376L352,496v-16h-12.144H172.144H160v16l11.312,11.312l73.376-73.376
	c3.168-3.152,7.168-4.672,11.312-4.688c4.144,0.016,8.144,1.536,11.312,4.688L278.624,422.624z"/>
<path style="fill:#97DBFF;" d="M146.592,176c21.92,38.08,62.24,64,109.408,64s87.488-25.92,109.408-64H146.592z"/>
<g>
	<path style="fill:#4E5F80;" d="M80,32h32v80c0.016,66.064,44.528,121.584,105.168,138.544c0.576,0.16,1.184,0.288,1.76,0.448
		c4.896,1.296,9.872,2.336,14.96,3.12c1.424,0.224,2.832,0.464,4.256,0.656C244,255.504,249.936,256,256,256s12-0.496,17.856-1.216
		c1.44-0.176,2.832-0.432,4.256-0.656c5.088-0.784,10.064-1.824,14.96-3.12c0.592-0.16,1.184-0.288,1.76-0.448
		C355.472,233.584,400,178.064,400,112V32h32c8.832,0,16-7.168,16-16s-7.168-16-16-16h-48h-44.144H172.144H128H80
		c-8.832,0-16,7.168-16,16S71.168,32,80,32z M286.32,219.696c-0.72,0.208-1.456,0.368-2.176,0.56
		c-3.488,0.928-7.056,1.648-10.672,2.224c-1.28,0.208-2.544,0.432-3.824,0.592C265.168,223.616,260.64,224,256,224
		c-4.64,0-9.168-0.384-13.648-0.928c-1.28-0.16-2.544-0.384-3.824-0.592c-3.616-0.576-7.184-1.296-10.672-2.224
		c-0.72-0.192-1.456-0.352-2.176-0.56C207.792,214.528,191.904,208,178.992,192h154.016C320.096,208,304.208,214.528,286.32,219.696
		z M144,32h224v80c-0.032,17.216-4.048,33.44-10.992,48H154.976c-6.928-14.56-10.944-30.784-10.976-48V32z"/>
	<path style="fill:#4E5F80;" d="M432,480h-32v-80c-0.016-79.536-64.464-143.984-144-144c-79.536,0.016-143.984,64.464-144,144v80H80
		c-8.832,0-16,7.168-16,16s7.168,16,16,16h352c8.832,0,16-7.168,16-16S440.832,480,432,480z M368,480h-28.144H172.144H144v-80
		c0.112-61.856,50.144-111.888,112-112c61.856,0.112,111.888,50.144,112,112V480z"/>
	<path style="fill:#4E5F80;" d="M256,288c-8.832,0-16,7.168-16,16v19.2c0,8.832,7.168,16,16,16s16-7.168,16-16V304
		C272,295.168,264.832,288,256,288z"/>
	<path style="fill:#4E5F80;" d="M256,352c-8.832,0-16,7.168-16,16v16c0,8.832,7.168,16,16,16s16-7.168,16-16v-16
		C272,359.168,264.832,352,256,352z"/>
</g>
<g>
</g>
<g>
</g>
<g>
</g>
<g>
</g>
<g>
</g>
<g>
</g>
<g>
</g>
<g>
</g>
<g>
</g>
<g>
</g>
<g>
</g>
<g>
</g>
<g>
</g>
<g>
</g>
<g>
</g>
</svg>
