<?xml version="1.0" encoding="iso-8859-1"?>
<!-- Generator: Adobe Illustrator 19.0.0, SVG Export Plug-In . SVG Version: 6.00 Build 0)  -->
<svg version="1.1" id="Layer_1" xmlns="http://www.w3.org/2000/svg" xmlns:xlink="http://www.w3.org/1999/xlink" x="0px" y="0px"
	 viewBox="0 0 512 512" style="enable-background:new 0 0 512 512;" xml:space="preserve">
<g>
	<path style="fill:white" d="M160,248.032c-0.192,18.224,9.04,33.76,21.552,42.672c12.496,9.088,27.6,12.976,42.512,13.024
		c14.912-0.048,30-3.936,42.496-13.024c12.496-8.896,21.728-24.448,21.536-42.672c0.016-9.664-1.968-18.576-6.096-26.08
		c-7.328-13.376-19.872-20.096-31.056-23.824c-16.992-5.536-34.352-6.944-45.136-11.136c-5.408-2-8.624-4.224-10.416-6.496
		c-1.76-2.304-3.28-5.232-3.376-12.528c0.192-8.24,2.976-12.544,8.496-16.88c5.52-4.144,14.448-6.864,23.568-6.832
		c9.104-0.048,18.032,2.672,23.552,6.816c5.504,4.336,8.272,8.624,8.48,16.88c0,8.832,7.168,16,16,16c8.832,0,16-7.168,16-16
		c0.192-18.224-9.04-33.776-21.536-42.672c-12.496-9.088-27.584-12.976-42.496-13.024c-14.912,0.048-30.016,3.936-42.512,13.024
		c-12.528,8.912-21.76,24.464-21.568,42.688c-0.016,9.664,1.968,18.576,6.096,26.08c7.328,13.376,19.872,20.096,31.056,23.824
		c16.992,5.536,34.352,6.944,45.136,11.136c5.408,2,8.624,4.224,10.432,6.496c1.76,2.304,3.28,5.232,3.376,12.528
		c-0.208,8.256-2.976,12.544-8.48,16.88c-5.52,4.144-14.432,6.864-23.552,6.816c-9.12,0.048-18.032-2.672-23.568-6.816
		c-5.52-4.336-8.288-8.64-8.496-16.88c0-8.832-7.168-16-16-16S160,239.2,160,248.032L160,248.032z"/>
	<path style="fill:white" d="M208,112v16.272c0,8.832,7.168,16,16,16s16-7.168,16-16V112c0-8.832-7.168-16-16-16
		S208,103.168,208,112"/>
	<path style="fill:white" d="M208,287.728V304c0,8.832,7.168,16,16,16s16-7.168,16-16v-16.272c0-8.832-7.168-16-16-16
		S208,278.896,208,287.728"/>
</g>
<path style="fill:transparent" d="M160,432h192h64h64c0,35.344-28.656,64-64,64H96C131.344,496,160,467.344,160,432z"/>
<path style="fill:white" d="M491.312,420.688C488.336,417.712,484.208,416,480,416h-48V48c-0.016-26.512-21.488-47.984-48-48H64
	C37.488,0.016,16.016,21.488,16,48v384c0.016,44.192,35.808,80,80,80h320c0,0,0,0,0.016,0C460.208,511.984,496,476.192,496,432
	C496,427.792,494.288,423.664,491.312,420.688z M144,432c-0.048,26.496-21.504,47.952-48,48c-26.512-0.048-47.952-21.504-48-48V48
	c0.016-8.832,7.168-16,16-16h320c8.832,0,15.984,7.168,16,16v368h-48H160c-4.208,0-8.336,1.712-11.312,4.688
	C145.712,423.664,144,427.792,144,432z M416,480H159.632c7.056-9.344,12.336-16,14.752-32H352h64h45.04
	C454.416,466.592,436.864,479.968,416,480z"/>
<g>
</g>
<g>
</g>
<g>
</g>
<g>
</g>
<g>
</g>
<g>
</g>
<g>
</g>
<g>
</g>
<g>
</g>
<g>
</g>
<g>
</g>
<g>
</g>
<g>
</g>
<g>
</g>
<g>
</g>
</svg>
