<?xml version="1.0" encoding="iso-8859-1"?>
<!-- Generator: Adobe Illustrator 19.0.0, SVG Export Plug-In . SVG Version: 6.00 Build 0)  -->
<svg version="1.1" id="Layer_1" xmlns="http://www.w3.org/2000/svg" xmlns:xlink="http://www.w3.org/1999/xlink" x="0px" y="0px"
	 viewBox="0 0 512 512" style="enable-background:new 0 0 512 512;" xml:space="preserve">
<path style="fill:#97DBFF;" d="M496,400H16v32c0,17.68,14.32,32,32,32h416c17.68,0,32-14.32,32-32V400z"/>
<polyline style="fill:#FFFFFF;" points="160,256 224,192 288,256 384,160 "/>
<g>
	<path style="fill:#4E5F80;" d="M507.312,388.688C504.336,385.712,500.208,384,496,384h-16V80c-0.016-26.512-21.488-47.984-48-48H80
		c-26.512,0.016-47.984,21.488-48,48v304H16c-4.208,0-8.336,1.712-11.312,4.688C1.712,391.664,0,395.792,0,400v32
		c0.016,26.512,21.488,48,48,48h416c26.512,0,47.984-21.488,48-48v-32C512,395.792,510.288,391.664,507.312,388.688z M64,80
		c0-8.832,7.168-16,16-16h352c8.832,0,15.984,7.168,16,16v304H64V80z M480,432c-0.016,8.832-7.168,15.984-16,16H48
		c-8.832-0.016-15.984-7.168-16-16v-16h16l0,0h416h16V432z"/>
	<path style="fill:#4E5F80;" d="M372.688,148.688L288,233.376l-52.688-52.688c-6.256-6.256-16.384-6.256-22.624,0l-64,64
		c-6.256,6.256-6.256,16.384,0,22.624c6.256,6.256,16.384,6.256,22.624,0l0,0L224,214.624l52.688,52.688
		C279.664,270.288,283.792,272,288,272s8.336-1.712,11.312-4.688l96-96c6.256-6.256,6.256-16.384,0-22.624
		C389.056,142.432,378.928,142.432,372.688,148.688z"/>
	<circle style="fill:#4E5F80;" cx="272" cy="432" r="16"/>
</g>
<g>
</g>
<g>
</g>
<g>
</g>
<g>
</g>
<g>
</g>
<g>
</g>
<g>
</g>
<g>
</g>
<g>
</g>
<g>
</g>
<g>
</g>
<g>
</g>
<g>
</g>
<g>
</g>
<g>
</g>
</svg>
