<?xml version="1.0" encoding="iso-8859-1"?>
<!-- Generator: Adobe Illustrator 19.0.0, SVG Export Plug-In . SVG Version: 6.00 Build 0)  -->
<svg version="1.1" id="Layer_1" xmlns="http://www.w3.org/2000/svg" xmlns:xlink="http://www.w3.org/1999/xlink" x="0px" y="0px"
	 viewBox="0 0 512 512" style="enable-background:new 0 0 512 512;" xml:space="preserve">
<g>
	<path style="fill:#4E5F80;" d="M256,0c-13.488,0-27.296,1.392-41.232,4.304C140.304,19.968,81.44,80.544,67.424,155.264
		C65.104,167.68,64,179.952,64,192c0,67.936,35.392,127.584,88.608,161.632c4.976,3.264,7.392,7.664,7.392,12.016V400
		c0,4.208,1.712,8.336,4.688,11.312S171.792,416,176,416h160c4.208,0,8.336-1.712,11.312-4.688C350.288,408.336,352,404.208,352,400
		v-32.976c-0.016-5.2,2.88-10.368,8.656-14.224C413.168,318.64,448,259.392,448,192C447.984,85.952,362.048,0.016,256,0z
		 M343.184,326c-13.312,8.592-23.168,23.456-23.184,41.024V384H192v-18.352c0-16.704-9.376-30.88-22.128-38.976
		C125.424,298.192,96,248.624,96,192c0-10.064,0.928-20.384,2.88-30.864c11.376-61.696,61.088-112.8,122.448-125.504
		C233.12,33.168,244.704,32,256,32c44.224,0,84.128,17.888,113.136,46.864C398.112,107.872,415.984,147.76,416,192
		C416,248.192,387.04,297.408,343.184,326z"/>
	<path style="fill:#4E5F80;" d="M255.984,64c-9.328,0-18.784,0.992-28.144,2.96c-48.848,10.432-88.096,50.736-97.488,100
		c-1.616,8.688,4.112,17.04,12.8,18.656s17.04-4.112,18.656-12.8l0,0c6.48-35.92,37.184-67.36,72.608-74.544
		c7.248-1.52,14.512-2.272,21.568-2.272c8.832,0,16-7.168,16-16S264.816,64,255.984,64z"/>
</g>
<path style="fill:#97DBFF;" d="M176,400h160v32c0,17.68-14.32,32-32,32h-96c-17.68,0-32-14.32-32-32V400z"/>
<g>
	<path style="fill:#4E5F80;" d="M347.312,388.688C344.336,385.712,340.208,384,336,384H176c-4.208,0-8.336,1.712-11.312,4.688
		C161.712,391.664,160,395.792,160,400v32c0.016,26.512,21.488,48,48,48h96c26.512,0,47.984-21.488,48-48v-32
		C352,395.792,350.288,391.664,347.312,388.688z M304,448h-96c-8.832-0.016-15.984-7.168-16-16v-16h128v16
		C319.984,440.832,312.832,447.984,304,448z"/>
	<path style="fill:#4E5F80;" d="M256,512c35.344,0,64-28.656,64-64H192C192,483.344,220.656,512,256,512z"/>
</g>
<g>
</g>
<g>
</g>
<g>
</g>
<g>
</g>
<g>
</g>
<g>
</g>
<g>
</g>
<g>
</g>
<g>
</g>
<g>
</g>
<g>
</g>
<g>
</g>
<g>
</g>
<g>
</g>
<g>
</g>
</svg>
