<?xml version="1.0" encoding="iso-8859-1"?>
<!-- Generator: Adobe Illustrator 19.0.0, SVG Export Plug-In . SVG Version: 6.00 Build 0)  -->
<svg version="1.1" id="Layer_1" xmlns="http://www.w3.org/2000/svg" xmlns:xlink="http://www.w3.org/1999/xlink" x="0px" y="0px"
	 viewBox="0 0 512 512" style="enable-background:new 0 0 512 512;" xml:space="preserve">
<g>
	<rect x="125.817" y="121.304" style="fill:#CEE8FA;" width="86.609" height="336.802"/>
	<rect x="299.048" y="256.121" style="fill:#CEE8FA;" width="86.609" height="201.984"/>
</g>
<path style="fill:#2D527C;" d="M498.526,444.636h-11.795v-53.899c0-7.44-6.032-13.474-13.474-13.474s-13.474,6.034-13.474,13.474
	v53.899h-59.668V337.008h73.142c7.442,0,13.474-6.034,13.474-13.474c0-7.44-6.032-13.474-13.474-13.474h-74.123v-53.937
	c0-7.44-6.032-13.474-13.474-13.474h-73.142v-53.938c0-7.44-6.032-13.474-13.474-13.474h-73.142v-53.938
	c0-7.44-6.032-13.474-13.474-13.474h-73.6V53.891c0-7.44-6.032-13.474-13.474-13.474H38.741c-7.442,0-13.474,6.034-13.474,13.474
	v314.6c0,7.44,6.032,13.474,13.474,13.474s13.474-6.034,13.474-13.474V67.364h59.668v377.271H38.741H13.474
	C6.032,444.636,0,450.669,0,458.109c0,7.44,6.032,13.474,13.474,13.474h485.053c7.442,0,13.474-6.034,13.474-13.474
	C512,450.669,505.968,444.636,498.526,444.636z M139.29,134.775h59.668v53.937v255.923H139.29V134.775z M225.905,202.186h59.668
	v53.938v188.512h-59.668V202.186z M312.519,444.636V269.598h59.668v175.038H312.519z"/>
<g>
</g>
<g>
</g>
<g>
</g>
<g>
</g>
<g>
</g>
<g>
</g>
<g>
</g>
<g>
</g>
<g>
</g>
<g>
</g>
<g>
</g>
<g>
</g>
<g>
</g>
<g>
</g>
<g>
</g>
</svg>
