<?xml version="1.0" encoding="iso-8859-1"?>
<!-- Generator: Adobe Illustrator 19.0.0, SVG Export Plug-In . SVG Version: 6.00 Build 0)  -->
<svg version="1.1" id="Layer_1" xmlns="http://www.w3.org/2000/svg" xmlns:xlink="http://www.w3.org/1999/xlink" x="0px" y="0px"
	 viewBox="0 0 512 512" style="enable-background:new 0 0 512 512;" xml:space="preserve">
<polygon style="fill:#CEE8FA;" points="449.869,151.948 482.929,275.33 359.548,242.27 "/>
<path style="fill:#2D527C;" d="M497.894,270.247l-32.792-122.381c-1.459-5.443-5.709-9.693-11.152-11.152
	c-5.446-1.46-11.25,0.099-15.234,4.082l-12.046,12.046l-80.593-80.595c-2.959-2.957-6.969-4.619-11.152-4.619
	s-8.195,1.662-11.152,4.619l-43.928,43.928c-6.159,6.159-6.159,16.145,0,22.305l58.483,58.483c3.08,3.079,7.116,4.619,11.152,4.619
	c4.036,0,8.072-1.541,11.152-4.619c6.159-6.159,6.159-16.145,0-22.305l-47.331-47.331l21.623-21.623l69.44,69.441l-55.971,55.971
	c-3.984,3.984-5.54,9.792-4.082,15.234c1.459,5.443,5.709,9.693,11.152,11.152l123.381,33.061c1.348,0.361,2.721,0.538,4.08,0.538
	c0.062,0,0.123,0,0.183,0c8.641-0.082,15.62-7.111,15.62-15.771C498.732,273.551,498.437,271.84,497.894,270.247z M390.015,234.107
	l51.689-51.691l18.919,70.61L390.015,234.107z"/>
<rect x="274.027" y="367.394" style="fill:#CEE8FA;" width="77.989" height="128.836"/>
<path style="fill:#2D527C;" d="M496.229,416.039h-77.993c-8.709,0-15.771,7.062-15.771,15.771s7.062,15.771,15.771,15.771h62.221
	v32.875H367.796V367.394c0-8.709-7.062-15.771-15.771-15.771h-77.993c-8.709,0-15.771,7.062-15.771,15.771v113.062h-34.667V273.348
	c0-8.709-7.061-15.771-15.771-15.771h-77.994c-8.711,0-15.771,7.062-15.771,15.771v134.057c0,8.709,7.061,15.771,15.771,15.771
	s15.771-7.062,15.771-15.771V289.119h46.45v191.337h-62.221H31.543V15.771C31.543,7.062,24.482,0,15.771,0S0,7.062,0,15.771v480.457
	C0,504.938,7.061,512,15.771,512h480.457c8.709,0,15.771-7.062,15.771-15.771V431.81C512,423.1,504.938,416.039,496.229,416.039z
	 M289.804,480.457v-97.292h46.45v97.29h-46.45V480.457z"/>
<g>
</g>
<g>
</g>
<g>
</g>
<g>
</g>
<g>
</g>
<g>
</g>
<g>
</g>
<g>
</g>
<g>
</g>
<g>
</g>
<g>
</g>
<g>
</g>
<g>
</g>
<g>
</g>
<g>
</g>
</svg>
