<?xml version="1.0" encoding="iso-8859-1"?>
<!-- Generator: Adobe Illustrator 19.0.0, SVG Export Plug-In . SVG Version: 6.00 Build 0)  -->
<svg version="1.1" id="Layer_1" xmlns="http://www.w3.org/2000/svg" xmlns:xlink="http://www.w3.org/1999/xlink" x="0px" y="0px"
	 viewBox="0 0 512 512" style="enable-background:new 0 0 512 512;" xml:space="preserve">
<path style="fill:#97DBFF;" d="M233.376,278.464c12.496-12.496,32.752-12.496,45.248,0L336,335.84l150.72-150.72l-0.96-0.64
	L275.52,22.88c-11.52-8.96-27.52-8.96-39.04,0L26.24,184.48l-0.96,0.64L176,335.84L233.376,278.464z"/>
<path style="fill:#4E5F80;" d="M498.032,173.808c-0.432-0.432-0.992-0.592-1.44-0.96c-0.384-0.304-0.576-0.768-0.992-1.04
	l-0.512-0.336L285.264,10.192l0.08,0.064C276.736,3.552,266.336,0.144,256,0.16c-10.336-0.016-20.736,3.392-29.344,10.096
	l0.08-0.064L16.912,171.472l-0.496,0.336c-0.416,0.272-0.624,0.736-1.008,1.04c-0.464,0.368-1.024,0.528-1.44,0.96
	C4.88,182.864-0.032,195.104,0,207.52v256.32c0.032,13.184,5.36,25.104,13.952,33.792c0.048,0.048,0.064,0.112,0.096,0.16
	c3.936,3.952,8.672,7.12,13.824,9.504c6.144,2.848,12.912,4.544,20.128,4.544h416c7.008,0,13.616-1.584,19.616-4.288
	c5.36-2.416,10.256-5.696,14.32-9.776c0.048-0.048,0.064-0.112,0.096-0.16c8.608-8.672,13.936-20.592,13.968-33.776V207.52
	C512.032,195.104,507.136,182.864,498.032,173.808z M246.24,35.568l0.08-0.064c2.896-2.256,6.256-3.344,9.68-3.344
	c3.424,0,6.784,1.088,9.696,3.344l0.064,0.064l196.688,151.184L336,313.216l-46.064-46.064c-9.328-9.344-21.712-14.08-33.936-14.064
	c-3.056,0-6.128,0.288-9.152,0.88c-4.624,0.896-9.056,2.688-13.312,4.96c-4.112,2.176-8.048,4.784-11.488,8.224L176,313.216
	L49.536,186.752L246.24,35.568z M32,457.216V214.464L153.376,335.84L32,457.216z M54.624,479.84l132.688-132.688l57.376-57.376
	c1.584-1.584,3.376-2.736,5.28-3.52c1.92-0.768,3.952-1.152,6.032-1.168c4.144,0.016,8.144,1.536,11.312,4.688l57.376,57.376l0,0
	l0,0L457.376,479.84H54.624z M480,457.216L358.624,335.84L480,214.464V457.216z"/>
<g>
</g>
<g>
</g>
<g>
</g>
<g>
</g>
<g>
</g>
<g>
</g>
<g>
</g>
<g>
</g>
<g>
</g>
<g>
</g>
<g>
</g>
<g>
</g>
<g>
</g>
<g>
</g>
<g>
</g>
</svg>
