<?xml version="1.0" encoding="iso-8859-1"?>
<!-- Generator: Adobe Illustrator 19.0.0, SVG Export Plug-In . SVG Version: 6.00 Build 0)  -->
<svg version="1.1" id="Layer_1" xmlns="http://www.w3.org/2000/svg" xmlns:xlink="http://www.w3.org/1999/xlink" x="0px" y="0px"
	 viewBox="0 0 511.999 511.999" style="enable-background:new 0 0 511.999 511.999;" xml:space="preserve">
<circle style="fill:#CEE8FA;" cx="255.994" cy="345.347" r="84.081"/>
<g>
	<path style="fill:#2D527C;" d="M255.999,444.32c-26.435,0-51.288-10.295-69.981-28.987c-5.815-5.815-5.815-15.245,0-21.062
		c5.815-5.814,15.245-5.814,21.062,0c13.066,13.066,30.439,20.264,48.92,20.264s35.853-7.197,48.92-20.264
		c13.068-13.066,20.264-30.439,20.264-48.92s-7.197-35.853-20.264-48.92c-13.066-13.066-30.439-20.264-48.92-20.264
		s-35.853,7.197-48.92,20.264c-5.815,5.814-15.245,5.814-21.062,0c-5.815-5.815-5.815-15.245,0-21.062
		c18.693-18.693,43.546-28.987,69.981-28.987s51.288,10.295,69.981,28.987c18.693,18.694,28.987,43.546,28.987,69.981
		s-10.295,51.287-28.987,69.981C307.287,434.025,282.433,444.32,255.999,444.32z"/>
	<path style="fill:#2D527C;" d="M262.739,339.023v-23.945c9.558,1.675,10.995,6.974,11.211,10.089
		c0.055,0.798,0.715,1.415,1.514,1.415h10.439c0.877,0,1.567-0.742,1.522-1.617c-0.678-13.133-9.68-21.583-24.687-23.482v-8.052
		c0-0.84-0.681-1.52-1.52-1.52H250.78c-0.84,0-1.52,0.681-1.52,1.52v8.052c-15.614,1.975-24.727,11.042-24.727,25.099
		c0,14.057,9.112,23.123,24.727,25.098v23.945c-9.558-1.675-10.995-6.974-11.211-10.089c-0.055-0.798-0.715-1.415-1.515-1.415
		h-10.439c-0.877,0-1.567,0.742-1.522,1.617c0.678,13.133,9.68,21.583,24.687,23.482v8.052c0,0.84,0.681,1.52,1.52,1.52h10.438
		c0.84,0,1.52-0.681,1.52-1.52v-8.052c15.614-1.975,24.727-11.042,24.727-25.099C287.465,350.065,278.353,340.997,262.739,339.023z
		 M249.26,338.087c-11.247-1.972-11.249-8.959-11.249-11.504c0-2.544,0.003-9.532,11.249-11.506V338.087z M262.739,375.626v-23.01
		c11.246,1.972,11.249,8.961,11.249,11.506C273.987,366.665,273.985,373.654,262.739,375.626z"/>
</g>
<polygon style="fill:#CEE8FA;" points="282.031,131.05 229.966,131.05 185.261,92.331 185.261,14.892 326.736,14.892 
	326.736,92.331 "/>
<path style="fill:#2D527C;" d="M368.83,154.897c-6.484-5.056-15.844-3.899-20.901,2.588c-5.057,6.486-3.899,15.844,2.588,20.901
	c37.717,29.406,59.348,73.662,59.348,121.423v182.406H102.132V299.809c0-72.435,50.314-133.329,117.828-149.594l-36.146,57.646
	c-4.369,6.968-2.264,16.159,4.706,20.529c2.459,1.541,5.194,2.276,7.897,2.276c4.956,0,9.803-2.474,12.63-6.981l46.952-74.877
	l46.952,74.877c2.828,4.509,7.674,6.981,12.63,6.981c2.703,0,5.439-0.734,7.897-2.276c6.968-4.371,9.075-13.561,4.706-20.529
	l-39.737-63.372c1.196-0.57,2.317-1.303,3.334-2.183l44.705-38.719c3.266-2.828,5.142-6.935,5.142-11.257V14.892
	C341.628,6.669,334.961,0,326.736,0H185.261c-8.225,0-14.892,6.669-14.892,14.892v77.439c0,4.32,1.876,8.427,5.142,11.257
	l24.575,21.284C126.079,148.58,72.348,218.033,72.348,299.809v197.298c0,8.223,6.667,14.892,14.892,14.892h337.518
	c8.225,0,14.892-6.669,14.892-14.892V299.809C439.651,242.805,413.838,189.986,368.83,154.897z M200.153,29.784h111.691v55.744
	l-35.364,30.63h-40.961l-35.366-30.63V29.784z"/>
<g>
</g>
<g>
</g>
<g>
</g>
<g>
</g>
<g>
</g>
<g>
</g>
<g>
</g>
<g>
</g>
<g>
</g>
<g>
</g>
<g>
</g>
<g>
</g>
<g>
</g>
<g>
</g>
<g>
</g>
</svg>
