<?xml version="1.0" encoding="iso-8859-1"?>
<!-- Generator: Adobe Illustrator 19.0.0, SVG Export Plug-In . SVG Version: 6.00 Build 0)  -->
<svg version="1.1" id="Layer_1" xmlns="http://www.w3.org/2000/svg" xmlns:xlink="http://www.w3.org/1999/xlink" x="0px" y="0px"
	 viewBox="0 0 512 512" style="enable-background:new 0 0 512 512;" xml:space="preserve">
<path style="fill:#97DBFF;" d="M256,208L256,208c-17.6,0-32-14.4-32-32v-32c0-17.6,14.4-32,32-32s32,14.4,32,32v32
	C288,193.6,273.6,208,256,208z"/>
<path style="fill:#4E5F80;" d="M256,0C158.784,0.016,80.016,78.784,80,176v160c0.016,97.216,78.784,175.984,176,176
	c97.2-0.016,175.984-78.784,176-176V176C431.984,78.784,353.2,0.016,256,0z M256,128L256,128L256,128
	c8.688,0.016,15.984,7.312,16,16v32c-0.016,8.688-7.312,15.984-16,16c-8.688-0.016-15.984-7.312-16-16v-32
	C240.016,135.312,247.312,128.016,256,128z M400,336c-0.016,39.808-16.096,75.712-42.176,101.824
	C331.712,463.904,295.808,480,256,480c-39.824,0-75.712-16.096-101.824-42.176C128.096,411.712,112,375.808,112,336V176
	c0-39.808,16.096-75.712,42.176-101.824c22.56-22.528,52.432-37.552,85.824-41.248V98.96c-18.576,6.64-31.952,24.176-32,45.04v32
	c0.064,26.512,21.488,47.936,48,48c26.512-0.064,47.936-21.488,48-48v-32c-0.048-20.864-13.424-38.4-32-45.04V32.944
	c33.376,3.696,63.264,18.704,85.824,41.248c26.08,26.096,42.16,62,42.176,101.808V336z"/>
<g>
</g>
<g>
</g>
<g>
</g>
<g>
</g>
<g>
</g>
<g>
</g>
<g>
</g>
<g>
</g>
<g>
</g>
<g>
</g>
<g>
</g>
<g>
</g>
<g>
</g>
<g>
</g>
<g>
</g>
</svg>
