<?xml version="1.0" encoding="iso-8859-1"?>
<!-- Generator: Adobe Illustrator 19.0.0, SVG Export Plug-In . SVG Version: 6.00 Build 0)  -->
<svg version="1.1" id="Layer_1" xmlns="http://www.w3.org/2000/svg" xmlns:xlink="http://www.w3.org/1999/xlink" x="0px" y="0px"
	 viewBox="0 0 512 512" style="enable-background:new 0 0 512 512;" xml:space="preserve">
<path style="fill:#97DBFF;" d="M432,80h-32v160l-64-64l-64,64V80H80c-17.6,0-32-14.4-32-32v416c0,17.6,14.4,32,32,32h352
	c17.6,0,32-14.4,32-32V112C464,94.32,449.68,80,432,80z"/>
<g>
	<path style="fill:#4E5F80;" d="M432,0H80C53.488,0.064,32.064,21.488,32,48v416c0.064,26.512,21.488,48,48,48h32l0,0l0,0h320
		c26.512,0,47.936-21.488,48-48V112l0,0V48C479.936,21.488,458.512,0.064,432,0z M96,480H80c-8.688-0.016-15.984-7.312-16-16V93.04
		C69.024,94.832,74.352,96,80,96h16V480z M448,464c-0.016,8.688-7.312,15.984-16,16H128V96h128v144
		c0,6.464,3.904,12.304,9.872,14.784c5.984,2.48,12.864,1.104,17.44-3.472L336,198.624l52.688,52.688
		c4.576,4.576,11.456,5.952,17.44,3.472c5.968-2.48,9.872-8.32,9.872-14.784V96h16l0,0c8.832,0.016,15.984,7.168,16,16V464z
		 M288,201.376V96h96v105.376l-36.688-36.688c-6.256-6.256-16.384-6.256-22.624,0L288,201.376z M448,66.944
		C442.976,65.152,437.648,64,432,64h-32H272H80c-8.688-0.016-15.984-7.312-16-16c0.016-8.688,7.312-16,16-16h352
		c8.688,0,15.984,7.312,16,16V66.944z"/>
	<path style="fill:#4E5F80;" d="M411.312,68.688C408.336,65.712,404.208,64,400,64H272c-4.208,0-8.336,1.712-11.312,4.688
		C257.712,71.664,256,75.792,256,80v160c0,6.464,3.904,12.304,9.872,14.784c5.984,2.48,12.864,1.104,17.44-3.472L336,198.624
		l52.688,52.688c4.576,4.576,11.456,5.952,17.44,3.472c5.968-2.48,9.872-8.32,9.872-14.784V80
		C416,75.792,414.288,71.664,411.312,68.688z M384,201.376l-36.688-36.688c-6.256-6.256-16.384-6.256-22.624,0L288,201.376V96h96
		V201.376z"/>
</g>
<g>
</g>
<g>
</g>
<g>
</g>
<g>
</g>
<g>
</g>
<g>
</g>
<g>
</g>
<g>
</g>
<g>
</g>
<g>
</g>
<g>
</g>
<g>
</g>
<g>
</g>
<g>
</g>
<g>
</g>
</svg>
