<?xml version="1.0" encoding="iso-8859-1"?>
<!-- Generator: Adobe Illustrator 19.0.0, SVG Export Plug-In . SVG Version: 6.00 Build 0)  -->
<svg version="1.1" id="Layer_1" xmlns="http://www.w3.org/2000/svg" xmlns:xlink="http://www.w3.org/1999/xlink" x="0px" y="0px"
	 viewBox="0 0 512 512" style="enable-background:new 0 0 512 512;" xml:space="preserve">
<path style="fill:#97DBFF;" d="M416,496H96c-17.68,0-32-14.32-32-32V272c0-17.68,14.32-32,32-32h320c17.68,0,32,14.32,32,32v192
	C448,481.68,433.68,496,416,496z"/>
<g>
	<path style="fill:#4E5F80;" d="M432,226.944V176C431.984,78.784,353.2,0.016,256,0C158.784,0.016,80.016,78.784,80,176v50.944
		C61.392,233.552,48,251.12,48,272v192c0.016,26.512,21.488,48,48,48h320c26.512,0,47.984-21.488,48-48V272
		C463.984,251.12,450.592,233.552,432,226.944z M112,176c0-39.808,16.096-75.712,42.176-101.824C180.288,48.096,216.176,32,256,32
		c39.808,0,75.712,16.096,101.824,42.176C383.904,100.288,399.984,136.192,400,176v48h-32v-48c-0.032-61.808-50.192-111.968-112-112
		c-61.808,0.032-111.968,50.192-112,112v48h-32V176z M176,224v-48l0,0c0.08-44.08,35.936-79.92,80-80
		c44.064,0.08,79.92,35.936,80,80v48H176z M432,464c-0.016,8.832-7.168,15.984-16,16H96c-8.832-0.016-15.984-7.168-16-16V272
		c0.016-8.832,7.168-15.984,16-16l0,0h64l0,0h192l0,0h64l0,0c8.832,0.016,15.984,7.168,16,16V464z"/>
	<path style="fill:#4E5F80;" d="M256,288c-26.512,0-48,21.488-48,48c0,20.864,13.392,38.448,32,45.056V432c0,8.832,7.168,16,16,16
		s16-7.168,16-16v-50.944c18.592-6.608,32-24.192,32-45.056C304,309.488,282.512,288,256,288z"/>
</g>
<g>
</g>
<g>
</g>
<g>
</g>
<g>
</g>
<g>
</g>
<g>
</g>
<g>
</g>
<g>
</g>
<g>
</g>
<g>
</g>
<g>
</g>
<g>
</g>
<g>
</g>
<g>
</g>
<g>
</g>
</svg>
