<?xml version="1.0" encoding="iso-8859-1"?>
<!-- Generator: Adobe Illustrator 19.0.0, SVG Export Plug-In . SVG Version: 6.00 Build 0)  -->
<svg version="1.1" id="Layer_1" xmlns="http://www.w3.org/2000/svg" xmlns:xlink="http://www.w3.org/1999/xlink" x="0px" y="0px"
	 viewBox="0 0 512 512" style="enable-background:new 0 0 512 512;" xml:space="preserve">
<path style="fill:#97DBFF;" d="M448,80H64c-17.68,0-32-14.32-32-32s14.32-32,32-32h384c17.68,0,32,14.32,32,32S465.68,80,448,80z"/>
<path style="fill:#4E5F80;" d="M448,0H64C37.488,0.016,16.016,21.488,16,48c0,20.88,13.392,38.448,32,45.056V368
	c0,4.208,1.712,8.336,4.688,11.312C55.664,382.288,59.792,384,64,384h176v34.944c-18.592,6.608-31.984,24.176-32,45.056
	c0.032,26.528,21.504,47.968,48,48c26.496-0.032,47.968-21.472,48-48c-0.016-20.88-13.408-38.432-32-45.056V384h176
	c4.208,0,8.336-1.712,11.312-4.688C462.288,376.336,464,372.208,464,368V93.056C482.608,86.448,496,68.88,496,48
	C495.984,21.488,474.512,0.016,448,0z M256,480c-8.784-0.016-15.984-7.216-16-16c0.016-8.784,7.216-15.984,16-16l0,0l0,0
	c8.784,0.016,15.984,7.216,16,16C271.984,472.784,264.784,479.984,256,480z M432,352H80V96h352V352z M448,64H64
	c-8.832-0.016-15.984-7.168-16-16c0.016-8.832,7.168-16,16-16h384c8.832,0,15.984,7.168,16,16C463.984,56.832,456.832,63.984,448,64
	z"/>
<polyline style="fill:#FFFFFF;" points="128,272 192,208 256,272 384,144 "/>
<path style="fill:#4E5F80;" d="M139.312,283.312L192,230.624l52.688,52.688C247.664,286.288,251.792,288,256,288
	c4.208,0,8.336-1.712,11.312-4.688l128-128c6.256-6.256,6.256-16.384,0-22.624c-6.256-6.256-16.384-6.256-22.624,0L256,249.376
	l-52.688-52.688c-6.256-6.256-16.384-6.256-22.624,0l-64,64c-6.256,6.24-6.256,16.384,0,22.624
	C122.928,289.568,133.072,289.568,139.312,283.312L139.312,283.312z"/>
<g>
</g>
<g>
</g>
<g>
</g>
<g>
</g>
<g>
</g>
<g>
</g>
<g>
</g>
<g>
</g>
<g>
</g>
<g>
</g>
<g>
</g>
<g>
</g>
<g>
</g>
<g>
</g>
<g>
</g>
</svg>
