<?xml version="1.0" encoding="iso-8859-1"?>
<!-- Generator: Adobe Illustrator 19.0.0, SVG Export Plug-In . SVG Version: 6.00 Build 0)  -->
<svg version="1.1" id="Layer_1" xmlns="http://www.w3.org/2000/svg" xmlns:xlink="http://www.w3.org/1999/xlink" x="0px" y="0px"
	 viewBox="0 0 512 512" style="enable-background:new 0 0 512 512;" xml:space="preserve">
<polygon style="fill:#97DBFF;" points="224.005,432 256.005,496 288.005,432 256.005,16 "/>
<path style="fill:#4E5F80;" d="M494.085,424.416L270.229,8.672c0,0,0,0-0.016-0.016l-0.128-0.24c-0.24-0.432-0.64-0.688-0.896-1.088
	c-0.336-0.496-0.528-1.056-0.912-1.52c-0.24-0.304-0.576-0.512-0.832-0.784c-0.288-0.304-0.512-0.64-0.816-0.928
	c-0.144-0.128-0.272-0.256-0.416-0.368c-0.464-0.384-1.024-0.592-1.52-0.912c-0.4-0.256-0.656-0.672-1.088-0.896
	c-0.048-0.016-0.08-0.016-0.128-0.032c-0.272-0.144-0.576-0.176-0.848-0.304c-0.384-0.176-0.736-0.384-1.136-0.528
	c-0.224-0.08-0.432-0.192-0.656-0.256c-0.592-0.192-1.232-0.16-1.84-0.272c-0.544-0.112-1.072-0.384-1.616-0.432
	c-0.048,0-0.08-0.032-0.128-0.032c-0.208-0.016-0.384,0.08-0.592,0.08C256.421,0.112,256.229,0,256.005,0
	c-0.224,0-0.416,0.112-0.64,0.128c-0.208,0.016-0.384-0.096-0.592-0.08c-0.048,0-0.08,0.032-0.128,0.032
	c-0.56,0.048-1.072,0.32-1.632,0.432c-0.608,0.112-1.248,0.08-1.84,0.272c-0.224,0.08-0.432,0.176-0.656,0.256
	c-0.4,0.144-0.752,0.352-1.136,0.528c-0.272,0.128-0.576,0.16-0.848,0.304c-0.032,0.016-0.08,0.016-0.128,0.032
	c-0.432,0.24-0.688,0.64-1.088,0.896c-0.496,0.336-1.056,0.528-1.52,0.912c-0.144,0.128-0.272,0.24-0.416,0.368
	c-0.32,0.288-0.544,0.624-0.832,0.928c-0.272,0.288-0.592,0.48-0.832,0.784c-0.384,0.464-0.592,1.024-0.912,1.52
	c-0.272,0.4-0.672,0.656-0.896,1.088l0,0l-0.128,0.24c0,0,0,0,0,0.016L17.909,424.416c-2.656,4.944-2.528,10.976,0.352,15.792
	c2.88,4.816,8.128,7.792,13.744,7.792h182.112l27.584,55.152c2.704,5.44,8.224,8.848,14.304,8.848c6.064,0,11.6-3.408,14.304-8.848
	L297.893,448h182.112c5.616,0,10.864-2.976,13.728-7.792C496.613,435.392,496.757,429.36,494.085,424.416z M234.261,90.144
	l-12.992,168.864L209.189,416h-150.4L234.261,90.144z M256.005,460.224L240.293,428.8l15.712-204.176l15.712,204.192
	L256.005,460.224z M302.821,416L277.749,90.144L453.221,416H302.821z"/>
<g>
</g>
<g>
</g>
<g>
</g>
<g>
</g>
<g>
</g>
<g>
</g>
<g>
</g>
<g>
</g>
<g>
</g>
<g>
</g>
<g>
</g>
<g>
</g>
<g>
</g>
<g>
</g>
<g>
</g>
</svg>
