<?xml version="1.0" encoding="iso-8859-1"?>
<!-- Generator: Adobe Illustrator 19.0.0, SVG Export Plug-In . SVG Version: 6.00 Build 0)  -->
<svg version="1.1" id="Layer_1" xmlns="http://www.w3.org/2000/svg" xmlns:xlink="http://www.w3.org/1999/xlink" x="0px" y="0px"
	 viewBox="0 0 512.004 512.004" style="enable-background:new 0 0 512.004 512.004;" xml:space="preserve">
<path style="fill:#97DBFF;" d="M351.536,442.054l90.512-90.512l-316.8-316.784c-24.992-24.992-65.52-24.992-90.512,0
	s-24.992,65.52,0,90.512L351.536,442.054z"/>
<g>
	<path style="fill:#4E5F80;" d="M453.344,340.23L136.56,23.446C120.992,7.846,100.416-0.01,80,0.006
		c-20.416-0.016-40.992,7.84-56.576,23.44C7.84,39.014-0.016,59.59,0,80.006c-0.016,20.416,7.84,40.992,23.424,56.576
		l316.784,316.784c2.976,2.976,7.104,4.688,11.312,4.688s8.336-1.712,11.312-4.688l90.512-90.512
		c2.976-2.976,4.688-7.104,4.688-11.312C458.032,347.318,456.336,343.206,453.344,340.23z M351.52,419.414L46.064,113.942
		c-9.408-9.408-14.048-21.6-14.064-33.936c0.016-12.336,4.656-24.528,14.064-33.936S67.664,32.022,80,32.006
		c12.336,0.016,24.528,4.656,33.936,14.064l305.472,305.472L351.52,419.414z"/>
	<path style="fill:#4E5F80;" d="M480.352,461.542l-22.624-113.136c-1.168-5.808-5.392-10.464-11.056-12.176s-11.76-0.192-15.952,4
		l-90.512,90.512c-4.192,4.192-5.712,10.288-4,15.952s6.368,9.888,12.176,11.056l113.136,22.624
		c5.248,1.056,10.672-0.592,14.448-4.384C479.76,472.198,481.408,466.774,480.352,461.542z M432.208,383.99l12.064,60.288
		l-60.288-12.064L432.208,383.99z"/>
	<path style="fill:#4E5F80;" d="M507.312,484.694l-31.328-31.328c-6.24-6.24-16.384-6.24-22.624,0c-6.24,6.256-6.24,16.384,0,22.624
		l31.328,31.328c6.24,6.24,16.384,6.24,22.624,0C513.568,501.078,513.568,490.95,507.312,484.694z"/>
	<path style="fill:#4E5F80;" d="M249.712,159.206L159.2,249.718c-6.256,6.256-6.256,16.384,0,22.624
		c6.256,6.256,16.384,6.256,22.624,0l90.512-90.512c6.256-6.256,6.256-16.384,0-22.624
		C266.08,152.95,255.952,152.95,249.712,159.206"/>
	<path style="fill:#4E5F80;" d="M386.848,167.206L257.712,38.07c-9.328-9.344-21.712-14.08-33.936-14.064
		c-12.224-0.016-24.608,4.72-33.936,14.064L159.2,68.694c-6.256,6.256-6.256,16.384,0,22.624c6.256,6.256,16.384,6.256,22.624,0l0,0
		l30.624-30.624c3.168-3.152,7.168-4.672,11.312-4.688c4.144,0.016,8.144,1.536,11.312,4.688L364.208,189.83
		c6.256,6.256,16.384,6.256,22.624,0C393.088,183.59,393.088,173.446,386.848,167.206z"/>
</g>
<g>
</g>
<g>
</g>
<g>
</g>
<g>
</g>
<g>
</g>
<g>
</g>
<g>
</g>
<g>
</g>
<g>
</g>
<g>
</g>
<g>
</g>
<g>
</g>
<g>
</g>
<g>
</g>
<g>
</g>
</svg>
