<?xml version="1.0" encoding="iso-8859-1"?>
<!-- Generator: Adobe Illustrator 19.0.0, SVG Export Plug-In . SVG Version: 6.00 Build 0)  -->
<svg version="1.1" id="Layer_1" xmlns="http://www.w3.org/2000/svg" xmlns:xlink="http://www.w3.org/1999/xlink" x="0px" y="0px"
	 viewBox="0 0 509.566 509.566" style="enable-background:new 0 0 509.566 509.566;" xml:space="preserve">
<path style="fill:#4E5F80;" d="M508.491,489.308l-44.907-157.19c-1.54-5.399-5.844-9.591-11.29-11.004
	c-5.447-1.413-11.243,0.175-15.212,4.145L324.798,437.541c-3.97,3.97-5.558,9.766-4.145,15.212
	c1.413,5.447,5.605,9.734,11.004,11.29l157.19,44.907c5.558,1.588,11.513,0.048,15.594-4.033
	C508.538,500.821,510.079,494.866,508.491,489.308z M440.463,366.783l29.647,103.772l-103.772-29.647L440.463,366.783z"/>
<rect x="166.107" y="38.575" transform="matrix(-0.7071 0.7071 -0.7071 -0.7071 593.0181 246.2798)" style="fill:#97DBFF;" width="158.793" height="414.766"/>
<g>
	<path style="fill:#4E5F80;" d="M459.535,325.242L166.242,31.949c-6.209-6.209-16.261-6.209-22.453,0L31.489,144.233
		c-6.209,6.209-6.209,16.261,0,22.453l293.309,293.309c2.954,2.954,7.05,4.653,11.227,4.653c4.176,0,8.273-1.699,11.227-4.653
		l112.283-112.283c2.954-2.954,4.653-7.05,4.653-11.227C464.187,332.293,462.488,328.196,459.535,325.242z M336.024,426.299
		L65.185,155.46l89.83-89.83l270.839,270.839L336.024,426.299z"/>
	<path style="fill:#4E5F80;" d="M166.845,32.585l-7.781-8.686l-0.603-0.635C142.963,7.749,122.51-0.016,102.232,0
		C81.97-0.016,61.596,7.813,46.177,23.263L23.724,45.717l0,0C8.289,61.136,0.445,81.509,0.461,101.771
		c-0.016,19.992,7.622,40.127,22.708,55.546l-0.048,0.048l7.781,8.686c2.906,3.255,7.035,5.161,11.401,5.288
		s8.575-1.556,11.671-4.653L166.258,54.403C172.197,48.432,172.466,38.857,166.845,32.585z M46.177,68.17l22.453-22.453
		c9.337-9.321,21.405-13.942,33.601-13.958c10.941,0.016,21.628,3.875,30.473,11.259l-89.226,89.226
		c-7.384-8.829-11.243-19.532-11.259-30.473C32.235,89.576,36.856,77.507,46.177,68.17L34.951,56.944L46.177,68.17z"/>
	<path style="fill:#4E5F80;" d="M459.535,437.526l-22.453,22.453c-6.209,6.193-6.209,16.261,0,22.453s16.26,6.193,22.453,0
		l22.453-22.453c6.209-6.193,6.209-16.261,0-22.453C475.795,431.333,465.743,431.333,459.535,437.526"/>
</g>
<g>
</g>
<g>
</g>
<g>
</g>
<g>
</g>
<g>
</g>
<g>
</g>
<g>
</g>
<g>
</g>
<g>
</g>
<g>
</g>
<g>
</g>
<g>
</g>
<g>
</g>
<g>
</g>
<g>
</g>
</svg>
