<?xml version="1.0" encoding="iso-8859-1"?>
<!-- Generator: Adobe Illustrator 19.0.0, SVG Export Plug-In . SVG Version: 6.00 Build 0)  -->
<svg version="1.1" id="Layer_1" xmlns="http://www.w3.org/2000/svg" xmlns:xlink="http://www.w3.org/1999/xlink" x="0px" y="0px"
	 viewBox="0 0 512 512" style="enable-background:new 0 0 512 512;" xml:space="preserve">
<path style="fill:#CEE8FA;" d="M291.051,14.877V220.95h206.073C497.124,107.139,404.861,14.877,291.051,14.877z"/>
<g>
	<path style="fill:#2D527C;" d="M497.124,235.824H291.051c-8.216,0-14.876-6.661-14.876-14.876V14.877
		c0-8.215,6.66-14.876,14.876-14.876C412.883,0.001,512,99.118,512,220.948C512,229.164,505.34,235.824,497.124,235.824z
		 M305.927,206.072h175.748c-7.237-93.59-82.159-168.51-175.748-175.747V206.072z"/>
	<path style="fill:#2D527C;" d="M427.022,276.176H295.173c-8.216,0-14.876,6.661-14.876,14.876c0,8.215,6.66,14.876,14.876,14.876
		h116.4c-7.617,98.5-90.204,176.32-190.624,176.32c-105.426,0.001-191.197-85.769-191.197-191.196
		c0-100.421,77.821-183.006,176.321-190.624V284.89l-88.526,88.524c-5.809,5.809-5.809,15.229,0,21.039
		c2.905,2.904,6.712,4.357,10.519,4.357c3.807,0,7.615-1.453,10.519-4.357l92.883-92.883c0.003-0.003,0.004-0.006,0.007-0.009
		c0.344-0.344,0.669-0.705,0.979-1.083c0.141-0.171,0.263-0.353,0.394-0.528c0.159-0.213,0.323-0.419,0.472-0.641
		c0.141-0.21,0.263-0.428,0.391-0.644c0.12-0.201,0.247-0.397,0.357-0.604c0.118-0.219,0.216-0.445,0.321-0.666
		c0.103-0.217,0.211-0.43,0.303-0.653c0.089-0.217,0.162-0.439,0.241-0.659c0.085-0.238,0.177-0.472,0.25-0.714
		c0.067-0.22,0.116-0.445,0.173-0.668c0.062-0.247,0.131-0.491,0.181-0.744c0.051-0.256,0.08-0.515,0.118-0.774
		c0.031-0.222,0.074-0.44,0.097-0.666c0.048-0.488,0.074-0.977,0.074-1.467V84.979c0-8.215-6.66-14.876-14.876-14.876
		C99.117,70.103,0,169.22,0,291.052c0,121.83,99.117,220.948,220.949,220.948s220.949-99.117,220.949-220.948
		C441.898,282.837,435.238,276.176,427.022,276.176z"/>
</g>
<g>
</g>
<g>
</g>
<g>
</g>
<g>
</g>
<g>
</g>
<g>
</g>
<g>
</g>
<g>
</g>
<g>
</g>
<g>
</g>
<g>
</g>
<g>
</g>
<g>
</g>
<g>
</g>
<g>
</g>
</svg>
