<?xml version="1.0" encoding="iso-8859-1"?>
<!-- Generator: Adobe Illustrator 19.0.0, SVG Export Plug-In . SVG Version: 6.00 Build 0)  -->
<svg version="1.1" id="Layer_1" xmlns="http://www.w3.org/2000/svg" xmlns:xlink="http://www.w3.org/1999/xlink" x="0px" y="0px"
	 viewBox="0 0 511.999 511.999" style="enable-background:new 0 0 511.999 511.999;" xml:space="preserve">
<path style="fill:#CEE8FA;" d="M475.098,164.836l-165.709,91.162l165.709,91.162c14.906-27.037,23.396-58.107,23.396-91.162
	S490.003,191.872,475.098,164.836z"/>
<g>
	<path style="fill:#2D527C;" d="M475.085,360.672c-2.202,0-4.433-0.539-6.5-1.675l-165.71-91.162
		c-4.314-2.375-6.997-6.909-6.997-11.835c0-4.926,2.681-9.461,6.997-11.835l165.71-91.162c6.532-3.594,14.739-1.217,18.339,5.314
		c16.405,29.753,25.074,63.531,25.074,97.683s-8.67,67.931-25.074,97.683C484.465,358.148,479.848,360.672,475.085,360.672z
		 M337.41,255.999l131.91,72.569c10.278-22.668,15.665-47.499,15.665-72.569S479.6,206.1,469.32,183.43L337.41,255.999z"/>
	<path style="fill:#2D527C;" d="M374.833,335.326l-102.611-56.449c-6.539-3.596-14.75-1.212-18.346,5.323
		c-3.596,6.535-1.212,14.75,5.323,18.346l90.311,49.682c-32.322,49.274-87.442,79.367-146.898,79.367
		c-96.824,0-175.597-78.772-175.597-175.597S105.788,80.401,202.612,80.401c59.456,0,114.577,30.095,146.898,79.367L199.141,242.49
		H94.552c-7.46,0-13.507,6.049-13.507,13.507s6.047,13.507,13.507,13.507h108.06c0.007,0,0.014-0.001,0.022-0.001
		c0.898,0,3.854-0.421,6.474-1.664c0.005-0.003,0.009-0.004,0.015-0.007l165.709-91.162c3.141-1.728,5.465-4.633,6.462-8.076
		c0.998-3.444,0.586-7.141-1.144-10.281C344.468,93.592,276.44,53.387,202.612,53.387C90.892,53.387,0,144.279,0,255.999
		s90.892,202.612,202.612,202.612c73.828,0,141.856-40.206,177.538-104.929c1.729-3.139,2.142-6.838,1.144-10.281
		C380.297,339.959,377.973,337.054,374.833,335.326z"/>
</g>
<g>
</g>
<g>
</g>
<g>
</g>
<g>
</g>
<g>
</g>
<g>
</g>
<g>
</g>
<g>
</g>
<g>
</g>
<g>
</g>
<g>
</g>
<g>
</g>
<g>
</g>
<g>
</g>
<g>
</g>
</svg>
