<?xml version="1.0" encoding="iso-8859-1"?>
<!-- Generator: Adobe Illustrator 19.0.0, SVG Export Plug-In . SVG Version: 6.00 Build 0)  -->
<svg version="1.1" id="Layer_1" xmlns="http://www.w3.org/2000/svg" xmlns:xlink="http://www.w3.org/1999/xlink" x="0px" y="0px"
	 viewBox="0 0 512 512" style="enable-background:new 0 0 512 512;" xml:space="preserve">
<path style="fill:#97DBFF;" d="M464,208H48c-17.68,0-32,14.32-32,32v160c0,17.664,14.32,32,32,32h32v-64h352v64h32
	c17.68,0,32-14.336,32-32V240C496,222.32,481.68,208,464,208z"/>
<g>
	<circle style="fill:#4E5F80;" cx="128" cy="288" r="32"/>
	<path style="fill:#4E5F80;" d="M464,192h-16v-34.752c0-12.736-5.056-24.944-14.064-33.936l0,0L317.504,6.88
		c-3.44-3.456-8.208-5.072-12.896-4.592C300.128,0.928,295.504,0,290.752,0H112C85.488,0.016,64.016,21.488,64,48v144H48
		c-26.512,0.016-47.984,21.488-48,48v160c0.016,26.512,21.488,48,48,48h16v16c0.016,26.512,21.488,48,48,48h288
		c26.512,0,47.984-21.488,48-48v-16h16c26.512-0.016,47.984-21.488,48-48V240C511.984,213.488,490.512,192.016,464,192z M320,54.624
		L393.376,128H336c-8.832-0.016-15.984-7.168-16-16V54.624z M96,48c0.016-8.832,7.168-16,16-16h176v80c0.016,26.512,21.488,48,48,48
		h80v32H96V48z M416,432v32c-0.016,8.832-7.168,15.984-16,16H112c-8.832-0.016-15.984-7.168-16-16v-32v-48h320V432z M480,400
		c-0.016,8.832-7.168,15.984-16,16h-16v-48c0-4.208-1.712-8.336-4.688-11.312C440.336,353.712,436.208,352,432,352H80
		c-4.208,0-8.336,1.712-11.312,4.688C65.712,359.664,64,363.792,64,368v48H48c-8.832-0.016-15.984-7.168-16-16V240
		c0.016-8.832,7.168-16,16-16h32h352h32c8.832,0,15.984,7.168,16,16V400z"/>
</g>
<g>
</g>
<g>
</g>
<g>
</g>
<g>
</g>
<g>
</g>
<g>
</g>
<g>
</g>
<g>
</g>
<g>
</g>
<g>
</g>
<g>
</g>
<g>
</g>
<g>
</g>
<g>
</g>
<g>
</g>
</svg>
