<?xml version="1.0" encoding="iso-8859-1"?>
<!-- Generator: Adobe Illustrator 19.0.0, SVG Export Plug-In . SVG Version: 6.00 Build 0)  -->
<svg version="1.1" id="Layer_1" xmlns="http://www.w3.org/2000/svg" xmlns:xlink="http://www.w3.org/1999/xlink" x="0px" y="0px"
	 viewBox="0 0 512 512" style="enable-background:new 0 0 512 512;" xml:space="preserve">
<g>
	<rect x="299.574" y="121.304" style="fill:#CEE8FA;" width="86.609" height="336.802"/>
	<rect x="126.343" y="256.122" style="fill:#CEE8FA;" width="86.609" height="201.984"/>
</g>
<path style="fill:#2D527C;" d="M498.526,444.636h-11.795V188.713c0-7.44-6.034-13.474-13.474-13.474
	c-7.44,0-13.474,6.034-13.474,13.474v255.923h-59.667V67.365h73.141c7.44,0,13.474-6.034,13.474-13.474s-6.034-13.474-13.474-13.474
	h-86.614c-7.44,0-13.474,6.034-13.474,13.474v53.937h-73.6c-7.44,0-13.474,6.034-13.474,13.474v53.936h-73.142
	c-7.44,0-13.474,6.034-13.474,13.474v53.938H126.34c-7.44,0-13.474,6.034-13.474,13.474v53.936H38.742
	c-7.44,0-13.474,6.034-13.474,13.474v65.407c0,7.44,6.034,13.474,13.474,13.474s13.474-6.034,13.474-13.474v-51.933h59.667v107.628
	H38.742H13.474C6.034,444.635,0,450.668,0,458.109c0,7.44,6.034,13.474,13.474,13.474h485.053c7.44,0,13.474-6.034,13.474-13.474
	C512,450.668,505.967,444.636,498.526,444.636z M139.814,269.598h59.667v175.038h-59.667V269.598L139.814,269.598z M226.428,256.125
	v-53.938h59.668v242.45h-59.668V256.125z M313.044,444.636V188.713v-53.936h59.667v309.861h-59.667V444.636z"/>
<g>
</g>
<g>
</g>
<g>
</g>
<g>
</g>
<g>
</g>
<g>
</g>
<g>
</g>
<g>
</g>
<g>
</g>
<g>
</g>
<g>
</g>
<g>
</g>
<g>
</g>
<g>
</g>
<g>
</g>
</svg>
