<?xml version="1.0" encoding="iso-8859-1"?>
<!-- Generator: Adobe Illustrator 19.0.0, SVG Export Plug-In . SVG Version: 6.00 Build 0)  -->
<svg version="1.1" id="Layer_1" xmlns="http://www.w3.org/2000/svg" xmlns:xlink="http://www.w3.org/1999/xlink" x="0px" y="0px"
	 viewBox="0 0 511.3 511.3" style="enable-background:new 0 0 511.3 511.3;" xml:space="preserve">
<g>
	<polyline style="fill:#97DBFF;" points="283.878,193.36 183.766,93.264 93.254,183.76 193.366,283.872 	"/>
	<path style="fill:#97DBFF;" d="M283.862,193.36l-90.512,90.512c-22.384,57.392-10.608,125.152,35.664,171.424l226.272-226.272
		C409.03,182.752,341.27,170.976,283.862,193.36z"/>
</g>
<path style="fill:#4E5F80;" d="M364.79,342.16L364.79,342.16l101.824-101.824c2.976-2.976,4.688-7.104,4.688-11.312
	s-1.712-8.336-4.688-11.312c-34.24-34.24-79.296-51.36-124.208-51.344c-18.32,0-36.608,3.008-54.224,8.672l-81.776-81.776
	l11.312-11.312l-11.312-11.328l11.312,11.312c9.328-9.328,14.064-21.696,14.048-33.936c0.016-12.224-4.72-24.608-14.064-33.936
	C208.374,4.72,196.006-0.016,183.766,0c-12.224-0.016-24.608,4.72-33.936,14.064L14.07,149.824
	c-9.344,9.328-14.08,21.712-14.064,33.936c-0.016,12.224,4.72,24.608,14.064,33.952c9.328,9.344,21.712,14.08,33.936,14.064
	c12.224,0.016,24.608-4.72,33.936-14.064L93.254,206.4l81.792,81.776c-5.664,17.616-8.672,35.904-8.672,54.224
	c-0.016,44.912,17.088,89.968,51.344,124.208c2.976,2.976,7.104,4.688,11.312,4.688s8.336-1.712,11.312-4.688l101.824-101.824
	L483.99,506.608c6.256,6.256,16.384,6.256,22.624,0c6.24-6.256,6.24-16.384,0-22.624L364.79,342.16z M48.006,199.76
	c-4.144-0.016-8.144-1.536-11.312-4.688c-3.152-3.152-4.672-7.168-4.688-11.312c0.016-4.144,1.536-8.144,4.688-11.312L172.47,36.672
	c3.152-3.136,7.152-4.656,11.296-4.672c4.144,0.016,8.144,1.536,11.312,4.688c3.168,3.168,4.672,7.168,4.688,11.312
	c-0.016,4.144-1.536,8.144-4.688,11.312l-22.624,22.624l0,0l-90.512,90.512l0,0l-22.624,22.624
	C56.15,198.24,52.15,199.744,48.006,199.76z M183.766,115.888l77.472,77.472l-67.872,67.888l-77.472-77.472L183.766,115.888z
	 M198.374,342.4c0-16.912,3.056-33.792,8.928-49.84l85.264-85.264c16.048-5.872,32.944-8.928,49.84-8.928
	c31.84,0.016,63.488,10.448,89.6,31.328L229.702,432C208.822,405.888,198.39,374.24,198.374,342.4z"/>
<path style="fill:#4E5F80;" d="M204.678,295.184l90.512-90.512c6.24-6.256,6.24-16.384,0-22.624c-6.256-6.256-16.384-6.256-22.624,0
	l-90.512,90.512c-6.256,6.256-6.256,16.384,0,22.624S198.422,301.424,204.678,295.184"/>
<g>
</g>
<g>
</g>
<g>
</g>
<g>
</g>
<g>
</g>
<g>
</g>
<g>
</g>
<g>
</g>
<g>
</g>
<g>
</g>
<g>
</g>
<g>
</g>
<g>
</g>
<g>
</g>
<g>
</g>
</svg>
