<?xml version="1.0" encoding="iso-8859-1"?>
<!-- Generator: Adobe Illustrator 19.0.0, SVG Export Plug-In . SVG Version: 6.00 Build 0)  -->
<svg version="1.1" id="Layer_1" xmlns="http://www.w3.org/2000/svg" xmlns:xlink="http://www.w3.org/1999/xlink" x="0px" y="0px"
	 viewBox="0 0 512 512" style="enable-background:new 0 0 512 512;" xml:space="preserve">
<rect x="174.028" y="235.87" style="fill:#CEE8FA;" width="100.938" height="261.595"/>
<g>
	<path style="fill:#2D527C;" d="M244.103,167.551c33.987,0,61.64-27.651,61.64-61.64V61.64c0-8.027-6.507-14.534-14.534-14.534
		s-14.534,6.507-14.534,14.534v44.273c0,17.907-14.525,32.48-32.412,32.567c-0.054,0-0.105-0.009-0.158-0.009h-39.686
		c-17.741-0.256-32.097-14.759-32.097-32.559V61.64c0.001-17.961,14.612-32.572,32.572-32.572h39.209
		c8.027,0,14.534-6.507,14.534-14.534S252.13,0,244.103,0h-39.209c-33.987,0-61.64,27.651-61.64,61.64v44.273
		c0,14.79,5.239,28.377,13.955,39.01c-28.491,12.235-48.498,40.564-48.498,73.485v133.227c0,8.027,6.507,14.534,14.534,14.534h36.25
		v131.297c0,8.027,6.507,14.534,14.534,14.534h100.938c8.027,0,14.534-6.507,14.534-14.534V235.867
		c0-8.027-6.507-14.534-14.534-14.534h-35.935v-53.781h5.071V167.551z M260.434,250.401v232.533h-71.87V250.401h21.401v69.549
		c0,8.027,6.507,14.534,14.534,14.534s14.534-6.507,14.534-14.534v-69.549H260.434z M209.965,221.333H174.03
		c-8.027,0-14.534,6.507-14.534,14.534v101.234h-21.715V218.407c0-28.049,22.82-50.868,50.868-50.868h15.771
		c0.158,0.001,0.315,0.012,0.475,0.012h5.071v53.783H209.965z"/>
	<path style="fill:#2D527C;" d="M402.019,483.703l-60.43-135.195c-3.352-7.499,0.023-16.327,7.521-19.68
		c7.499-3.35,16.327,0.023,19.68,7.521c3.274,7.328,11.871,10.618,19.199,7.338c7.328-3.276,10.614-11.871,7.338-19.199
		c-9.443-21.126-33.612-31.149-55.043-23.408v-82.673c0-8.027-6.507-14.534-14.534-14.534s-14.534,6.507-14.534,14.534v120.737
		c0,7.934,0.945,14.761,3.834,21.224l60.43,135.195c2.414,5.402,7.719,8.607,13.277,8.607c1.981,0,3.997-0.407,5.923-1.269
		C402.009,499.627,405.295,491.031,402.019,483.703z"/>
</g>
<g>
</g>
<g>
</g>
<g>
</g>
<g>
</g>
<g>
</g>
<g>
</g>
<g>
</g>
<g>
</g>
<g>
</g>
<g>
</g>
<g>
</g>
<g>
</g>
<g>
</g>
<g>
</g>
<g>
</g>
</svg>
