<?xml version="1.0" encoding="iso-8859-1"?>
<!-- Generator: Adobe Illustrator 19.0.0, SVG Export Plug-In . SVG Version: 6.00 Build 0)  -->
<svg version="1.1" id="Layer_1" xmlns="http://www.w3.org/2000/svg" xmlns:xlink="http://www.w3.org/1999/xlink" x="0px" y="0px"
	 viewBox="0 0 512 512" style="enable-background:new 0 0 512 512;" xml:space="preserve">
<g>
	<path style="fill:#97DBFF;" d="M464,32H48c-17.68,0-32,14.32-32,32v352c0,17.664,14.32,32,32,32h416c17.68,0,32-14.336,32-32V64
		C496,46.32,481.68,32,464,32z M432,384H80V96h352V384z"/>
	<circle style="fill:#97DBFF;" cx="224" cy="240" r="80"/>
</g>
<g>
	<path style="fill:#4E5F80;" d="M304,240h-16c-0.064,35.344-28.656,63.936-64,64c-35.344-0.064-63.936-28.656-64-64
		c0.064-35.344,28.656-63.936,64-64c35.344,0.064,63.936,28.656,64,64H304h16c-0.016-53.024-42.976-95.984-96-96
		c-53.024,0.016-95.984,42.976-96,96c0.016,53.024,42.976,95.984,96,96c53.024-0.016,95.984-42.976,96-96H304z"/>
	<circle style="fill:#4E5F80;" cx="224" cy="240" r="32"/>
	<path style="fill:#4E5F80;" d="M464,16H48C21.488,16.016,0.016,37.488,0,64v352c0.016,26.512,21.488,48,48,48h16
		c0,17.68,14.32,32,32,32h32c17.68,0,32-14.32,32-32h192c0,17.68,14.32,32,32,32h32c17.68,0,32-14.32,32-32h16
		c26.512,0,47.984-21.488,48-48V64C511.984,37.488,490.512,16.016,464,16z M480,416c-0.016,8.832-7.168,15.984-16,16h-16h-96H160H64
		H48c-8.832-0.016-15.984-7.168-16-16V64c0.016-8.832,7.168-16,16-16h416c8.832,0,15.984,7.168,16,16V416z"/>
	<path style="fill:#4E5F80;" d="M448,160L448,160V96c0-4.208-1.712-8.336-4.688-11.312S436.208,80,432,80H80
		c-4.208,0-8.336,1.712-11.312,4.688C65.712,87.664,64,91.792,64,96v288c0,4.208,1.712,8.336,4.688,11.312
		C71.664,398.288,75.792,400,80,400h352c4.208,0,8.336-1.712,11.312-4.688S448,388.208,448,384v-64l0,0l0,0V160L448,160z M400,336
		h16v32H96V112h320v32h-16c-8.832,0-16,7.168-16,16s7.168,16,16,16h16v128h-16c-8.832,0-16,7.168-16,16S391.168,336,400,336z"/>
</g>
<g>
</g>
<g>
</g>
<g>
</g>
<g>
</g>
<g>
</g>
<g>
</g>
<g>
</g>
<g>
</g>
<g>
</g>
<g>
</g>
<g>
</g>
<g>
</g>
<g>
</g>
<g>
</g>
<g>
</g>
</svg>
