<?xml version="1.0" encoding="iso-8859-1"?>
<!-- Generator: Adobe Illustrator 19.0.0, SVG Export Plug-In . SVG Version: 6.00 Build 0)  -->
<svg version="1.1" id="Layer_1" xmlns="http://www.w3.org/2000/svg" xmlns:xlink="http://www.w3.org/1999/xlink" x="0px" y="0px"
	 viewBox="0 0 511.994 511.994" style="enable-background:new 0 0 511.994 511.994;" xml:space="preserve">
<g>
	<path style="fill:#97DBFF;" d="M112.154,304.221c-52.886,0-95.895,43.009-95.895,95.895s43.009,95.895,95.895,95.895
		s95.895-43.009,95.895-95.895S165.04,304.221,112.154,304.221z M112.154,432.081c-17.629,0-31.965-14.32-31.965-31.965
		c0-17.645,14.336-31.965,31.965-31.965c17.613,0,31.965,14.32,31.965,31.965C144.119,417.761,129.767,432.081,112.154,432.081z"/>
	<path style="fill:#97DBFF;" d="M399.84,304.221c-52.886,0-95.895,43.009-95.895,95.895s43.009,95.895,95.895,95.895
		s95.895-43.009,95.895-95.895S452.726,304.221,399.84,304.221z M399.84,432.081c-17.629,0-31.965-14.32-31.965-31.965
		c0-17.645,14.336-31.965,31.965-31.965c17.613,0,31.965,14.32,31.965,31.965C431.805,417.761,417.452,432.081,399.84,432.081z"/>
</g>
<path style="fill:#4E5F80;" d="M255.997,188.476l11.3-11.3L94.781,4.677C91.505,1.4,86.966-0.294,82.363,0.042
	c-4.619,0.32-8.87,2.637-11.651,6.345C54.17,28.347,45.235,55.086,45.235,82.959c-0.032,34.027,13.345,66.343,37.447,90.397
	l94.217,94.217c2.973,2.973,7.096,4.683,11.3,4.683s8.327-1.71,11.3-4.683l67.798-67.798c3.021-3.005,4.683-7.016,4.683-11.3
	c0-4.267-1.662-8.279-4.683-11.3L255.997,188.476l-11.3-11.3l-56.498,56.498l-82.917-82.917
	c-18.172-18.204-28.049-42.082-28.081-67.798c0.016-21.081,6.681-40.899,19.051-57.393l-12.77-9.59l-11.3,11.3l172.515,172.499
	L255.997,188.476l-11.3-11.3L255.997,188.476z"/>
<circle style="fill:#97DBFF;" cx="255.997" cy="256.354" r="31.965"/>
<g>
	<path style="fill:#4E5F80;" d="M112.154,352.169c-26.467,0.032-47.916,21.449-47.948,47.948
		c0.032,26.499,21.481,47.916,47.948,47.948c26.467-0.032,47.916-21.449,47.948-47.948
		C160.07,373.617,138.621,352.201,112.154,352.169z M112.154,416.099c-8.774-0.016-15.967-7.208-15.983-15.983
		c0.016-8.774,7.208-15.967,15.983-15.983c8.774,0.016,15.967,7.208,15.983,15.983C128.121,408.891,120.929,416.083,112.154,416.099
		z"/>
	<path style="fill:#4E5F80;" d="M399.84,352.169c-26.467,0.032-47.916,21.449-47.948,47.948
		c0.032,26.499,21.48,47.916,47.948,47.948c26.467-0.032,47.916-21.449,47.948-47.948
		C447.755,373.617,426.307,352.201,399.84,352.169z M399.84,416.099c-8.774-0.016-15.967-7.208-15.983-15.983
		c0.016-8.774,7.208-15.967,15.983-15.983c8.774,0.016,15.967,7.208,15.983,15.983C415.806,408.891,408.614,416.083,399.84,416.099z
		"/>
	<path style="fill:#4E5F80;" d="M399.84,288.239c-6.713,0-13.25,0.703-19.643,1.838l-33.803-33.803l82.917-82.901
		c24.102-24.054,37.463-56.37,37.447-90.397c0.016-27.874-8.934-54.628-25.46-76.588c-2.781-3.692-7.032-6.009-11.651-6.345
		c-4.619-0.32-9.158,1.374-12.418,4.635l-285.432,285.4c-6.393-1.135-12.93-1.838-19.643-1.838
		C50.414,288.271,0.309,338.376,0.277,400.116c0.032,61.74,50.137,111.846,111.878,111.878
		c61.74-0.032,111.846-50.137,111.878-111.878c0-6.713-0.703-13.25-1.838-19.643l33.803-33.787L289.8,380.49
		c-1.135,6.377-1.838,12.914-1.838,19.627c0.032,61.74,50.137,111.846,111.878,111.878c61.74-0.032,111.846-50.137,111.878-111.878
		C511.685,338.376,461.58,288.271,399.84,288.239z M425.316,41.772c6.073,12.706,9.462,26.595,9.478,41.187
		c-0.032,25.716-9.909,49.594-28.081,67.798l-94.217,94.217l-8.806,8.806c-1.295-24.453-20.729-43.904-45.183-45.199L425.316,41.772
		z M112.154,480.029c-44.032-0.08-79.833-35.897-79.913-79.913c0.08-44.016,35.897-79.833,79.913-79.913
		c6.984,0.016,13.649,1.215,20.122,2.909c0.096,0.032,0.192,0.096,0.288,0.112c6.697,1.79,13.026,4.443,18.907,7.783
		c0.24,0.128,0.479,0.256,0.703,0.384c2.893,1.694,5.674,3.548,8.327,5.578c0.144,0.112,0.272,0.224,0.416,0.336
		c5.242,4.076,9.973,8.806,14.049,14.049c0.096,0.128,0.208,0.256,0.32,0.384c2.03,2.653,3.9,5.434,5.594,8.343
		c0.128,0.224,0.24,0.448,0.368,0.671c3.356,5.882,6.025,12.227,7.799,18.923c0.032,0.112,0.096,0.192,0.128,0.304
		c1.694,6.457,2.893,13.122,2.909,20.106C191.987,444.148,156.17,479.949,112.154,480.029z M244.697,312.772l-34.139,34.139
		c-10.357-19.099-26.099-34.842-45.199-45.199l42.945-42.945c1.295,24.453,20.745,43.904,45.199,45.199L244.697,312.772z
		 M255.997,272.256c-8.822-0.016-15.967-7.16-15.983-15.983c0.016-8.822,7.16-15.967,15.983-15.983
		c8.822,0.016,15.967,7.16,15.983,15.983C271.964,265.096,264.819,272.24,255.997,272.256z M278.596,324.071l45.199-45.199
		l22.839,22.839c-19.099,10.357-34.842,26.099-45.199,45.199L278.596,324.071z M399.84,480.029
		c-44.032-0.08-79.833-35.897-79.913-79.913c0.016-6.984,1.215-13.649,2.909-20.106c0.032-0.112,0.096-0.192,0.128-0.304
		c1.79-6.713,4.443-13.042,7.799-18.923c0.128-0.224,0.24-0.448,0.368-0.671c1.694-2.893,3.564-5.69,5.594-8.343
		c0.096-0.128,0.208-0.256,0.32-0.384c4.076-5.242,8.806-9.973,14.049-14.049c0.144-0.112,0.272-0.224,0.416-0.336
		c2.653-2.03,5.434-3.884,8.327-5.578c0.24-0.144,0.479-0.256,0.719-0.384c5.882-3.356,12.195-6.009,18.891-7.784
		c0.096-0.032,0.192-0.096,0.288-0.112c6.473-1.71,13.138-2.909,20.122-2.909c44.016,0.08,79.833,35.897,79.913,79.913
		C479.672,444.148,443.855,479.949,399.84,480.029z"/>
</g>
<g>
</g>
<g>
</g>
<g>
</g>
<g>
</g>
<g>
</g>
<g>
</g>
<g>
</g>
<g>
</g>
<g>
</g>
<g>
</g>
<g>
</g>
<g>
</g>
<g>
</g>
<g>
</g>
<g>
</g>
</svg>
