<?xml version="1.0" encoding="iso-8859-1"?>
<!-- Generator: Adobe Illustrator 19.0.0, SVG Export Plug-In . SVG Version: 6.00 Build 0)  -->
<svg version="1.1" id="Layer_1" xmlns="http://www.w3.org/2000/svg" xmlns:xlink="http://www.w3.org/1999/xlink" x="0px" y="0px"
	 viewBox="0 0 512 512" style="enable-background:new 0 0 512 512;" xml:space="preserve">
<g>
	<path style="fill:#4E5F80;" d="M464,31.998H48c-26.512,0.016-47.984,21.488-48,48v256c0.016,26.512,21.488,48,48,48h80v80
		c0,6.464,3.904,12.304,9.872,14.784c5.984,2.48,12.864,1.104,17.44-3.472l91.312-91.312H464c26.512,0,47.984-21.488,48-48v-256
		C511.984,53.486,490.512,32.014,464,31.998z M480,335.998c-0.016,8.832-7.168,15.984-16,16H240c-4.208,0-8.336,1.712-11.312,4.688
		L160,425.374v-57.376c0-4.208-1.712-8.336-4.688-11.312s-7.104-4.688-11.312-4.688H48c-8.832-0.016-15.984-7.168-16-16v-256
		c0.016-8.832,7.168-16,16-16h416c8.832,0,15.984,7.168,16,16V335.998z"/>
	<path style="fill:#4E5F80;" d="M400,127.998H112c-8.832,0-16,7.168-16,16s7.168,16,16,16h288c8.832,0,16-7.168,16-16
		S408.832,127.998,400,127.998z"/>
	<path style="fill:#4E5F80;" d="M400,191.998H112c-8.832,0-16,7.168-16,16s7.168,16,16,16h288c8.832,0,16-7.168,16-16
		S408.832,191.998,400,191.998z"/>
	<path style="fill:#4E5F80;" d="M256,255.998H112c-8.832,0-16,7.168-16,16s7.168,16,16,16h144c8.832,0,16-7.168,16-16
		S264.832,255.998,256,255.998z"/>
</g>
<g>
</g>
<g>
</g>
<g>
</g>
<g>
</g>
<g>
</g>
<g>
</g>
<g>
</g>
<g>
</g>
<g>
</g>
<g>
</g>
<g>
</g>
<g>
</g>
<g>
</g>
<g>
</g>
<g>
</g>
</svg>
