<?xml version="1.0" encoding="iso-8859-1"?>
<!-- Generator: Adobe Illustrator 19.0.0, SVG Export Plug-In . SVG Version: 6.00 Build 0)  -->
<svg version="1.1" id="Layer_1" xmlns="http://www.w3.org/2000/svg" xmlns:xlink="http://www.w3.org/1999/xlink" x="0px" y="0px"
	 viewBox="0 0 512.004 512.004" style="enable-background:new 0 0 512.004 512.004;" xml:space="preserve">
<g>
	<path style="fill:#CEE8FA;" d="M439.722,496.372h-87.738V314.168l0,0c57.095,0,87.738,46.284,87.738,103.377V496.372z"/>
	<path style="fill:#CEE8FA;" d="M72.284,496.372h87.738V314.168l0,0c-57.093,0-87.738,46.284-87.738,103.377V496.372z"/>
</g>
<g>
	<path style="fill:#2D527C;" d="M256.002,329.797c-36.195,0-65.642-29.447-65.642-65.642c0-8.63,6.997-15.629,15.629-15.629
		s15.629,6.999,15.629,15.629c0,18.96,15.424,34.384,34.384,34.384s34.384-15.424,34.384-34.384s-15.424-34.384-34.384-34.384
		c-8.632,0-15.629-6.999-15.629-15.629c0-8.63,6.997-15.629,15.629-15.629c36.195,0,65.642,29.447,65.642,65.642
		S292.197,329.797,256.002,329.797z"/>
	<path style="fill:#2D527C;" d="M367.509,299.616V145.032c0-94.654-100.631-141.666-104.915-143.622
		c-4.195-1.913-9.016-1.88-13.183,0.097C245.137,3.533,144.7,52.197,144.7,145.032v154.559
		c-53.264,7.286-88.046,52.834-88.046,117.956v78.827c0,8.63,6.997,15.629,15.629,15.629h87.738c0.052,0,0.102-0.008,0.155-0.008
		s0.102,0.008,0.155,0.008c8.632,0,15.629-6.999,15.629-15.629V152.691h111.404c8.632,0,15.629-6.999,15.629-15.629
		s-6.997-15.629-15.629-15.629H179.062c12.503-47.492,59.692-78.211,77.178-88.157c20.263,11.153,80.011,49.342,80.011,111.76
		v335.711H232.565c-8.632,0-15.629,6.999-15.629,15.629s6.997,15.629,15.629,15.629H351.88c0.017,0,0.034-0.003,0.052-0.003
		s0.034,0.003,0.052,0.003h87.738c8.632,0,15.629-6.999,15.629-15.629v-78.827C455.351,352.507,420.659,306.992,367.509,299.616z
		 M144.393,480.743h-56.48v-63.198c0-36.234,15.132-77.911,56.48-86.252V480.743z M424.092,480.743h-56.48V331.295
		c41.35,8.341,56.48,50.018,56.48,86.252V480.743z"/>
</g>
<g>
</g>
<g>
</g>
<g>
</g>
<g>
</g>
<g>
</g>
<g>
</g>
<g>
</g>
<g>
</g>
<g>
</g>
<g>
</g>
<g>
</g>
<g>
</g>
<g>
</g>
<g>
</g>
<g>
</g>
</svg>
