<?xml version="1.0" encoding="iso-8859-1"?>
<!-- Generator: Adobe Illustrator 19.0.0, SVG Export Plug-In . SVG Version: 6.00 Build 0)  -->
<svg version="1.1" id="Layer_1" xmlns="http://www.w3.org/2000/svg" xmlns:xlink="http://www.w3.org/1999/xlink" x="0px" y="0px"
	 viewBox="0 0 512.003 512.003" style="enable-background:new 0 0 512.003 512.003;" xml:space="preserve">
<path style="fill:#354785" d="M467.84,112.403c-4.976-7.312-14.928-9.2-22.224-4.24c-7.312,4.976-9.2,14.912-4.24,22.224l0,0
	C465.76,166.259,480,209.443,480,256.003c0,61.792-25.088,117.696-65.68,158.32c-40.624,40.592-96.528,65.68-158.32,65.68
	s-117.696-25.088-158.32-65.68C57.088,373.699,32,317.795,32,256.003s25.088-117.696,65.68-158.32
	c40.624-40.592,96.528-65.68,158.32-65.68c46.56,0,89.744,14.24,125.616,38.624c7.312,4.976,17.264,3.072,22.224-4.24
	s3.072-17.264-4.24-22.224C358.656,16.307,309.136,0.003,256,0.003C114.784,0.035,0.032,114.787,0,256.003
	c0.032,141.216,114.784,255.968,256,256c141.216-0.032,255.968-114.784,256-256C512,202.867,495.696,153.347,467.84,112.403z"/>
<path style="fill:white" d="M256,112.003c-79.408,0-144,64.592-144,144s64.592,144,144,144s144-64.592,144-144
	S335.408,112.003,256,112.003z M256,304.003c-26.464,0-48-21.536-48-48s21.536-48,48-48s48,21.536,48,48
	S282.464,304.003,256,304.003z"/>
<g>
	<path style="fill:#354785" d="M256,192.003c-35.344,0.032-63.968,28.672-64,64c0.032,35.328,28.656,63.968,64,64
		c35.328-0.032,63.968-28.672,64-64C319.968,220.675,291.328,192.035,256,192.003z M256,288.003c-17.6-0.032-31.968-14.4-32-32
		c0.032-17.6,14.4-31.968,32-32c17.6,0.032,31.968,14.4,32,32C287.968,273.603,273.6,287.971,256,288.003z"/>
	<path style="fill:#354785" d="M256,96.003c-88.272,0.032-159.968,71.728-160,160c0.032,88.272,71.728,159.968,160,160
		c88.272-0.032,159.968-71.728,160-160C415.968,167.731,344.272,96.035,256,96.003z M346.464,346.467
		c-23.232,23.216-55.152,37.536-90.464,37.536c-35.328,0-67.232-14.32-90.464-37.536C142.32,323.235,128,291.315,128,256.003
		c0.016-35.328,14.32-67.232,37.536-90.464c23.232-23.216,55.136-37.536,90.464-37.536c35.312,0,67.232,14.32,90.464,37.536
		C369.68,188.771,384,220.691,384,256.003S369.68,323.235,346.464,346.467z"/>
</g>
<g>
	<path style="fill:#354785" d="M395.312,116.691c-6.256-6.256-16.384-6.256-22.624,0l-128,128c-6.256,6.256-6.256,16.384,0,22.624
		c6.256,6.256,16.384,6.256,22.624,0l128-128C401.568,133.075,401.568,122.931,395.312,116.691z"/>
	<path style="fill:#354785" d="M510.784,73.875c-2.48-5.968-8.32-9.872-14.784-9.872h-48v-48c0-6.464-3.904-12.304-9.872-14.784
		c-5.984-2.48-12.864-1.104-17.44,3.472l-64,64C353.712,71.667,352,75.795,352,80.003v64c0,4.208,1.712,8.336,4.688,11.312
		c2.976,2.976,7.104,4.688,11.312,4.688h64c4.208,0,8.336-1.712,11.312-4.688l64-64C511.888,86.739,513.264,79.859,510.784,73.875z
		 M425.376,128.003H384V86.627l32-32v25.376c0,4.208,1.712,8.336,4.688,11.312c2.976,2.976,7.104,4.688,11.312,4.688h25.376
		L425.376,128.003z"/>
</g>
<g>
</g>
<g>
</g>
<g>
</g>
<g>
</g>
<g>
</g>
<g>
</g>
<g>
</g>
<g>
</g>
<g>
</g>
<g>
</g>
<g>
</g>
<g>
</g>
<g>
</g>
<g>
</g>
<g>
</g>
</svg>
