<?xml version="1.0" encoding="iso-8859-1"?>
<!-- Generator: Adobe Illustrator 19.0.0, SVG Export Plug-In . SVG Version: 6.00 Build 0)  -->
<svg version="1.1" id="Layer_1" xmlns="http://www.w3.org/2000/svg" xmlns:xlink="http://www.w3.org/1999/xlink" x="0px" y="0px"
	 viewBox="0 0 510.962 510.962" style="enable-background:new 0 0 510.962 510.962;" xml:space="preserve">
<g>
	<path style="fill:#97DBFF;" d="M168.802,338.96c71.552,71.552,199.968,207.312,271.536,135.76l45.248-45.248
		c12.496-12.496,12.496-32.752,0-45.248l-90.512-90.512c-12.496-12.496-32.752-12.496-45.248,0l-22.624,22.624
		c-12.496,12.496-32.752,12.496-45.248,0l-87.312-87.312c-12.496-12.496-12.496-32.752,0-45.248l22.624-22.624
		c12.496-12.496,12.496-32.752,0-45.248l-90.528-90.528c-12.496-12.496-32.752-12.496-45.248,0L36.242,70.624
		C-35.326,142.192,97.25,267.408,168.802,338.96z"/>
</g>
<path style="fill:#4E5F80;" d="M496.898,372.896l-90.512-90.512c-9.328-9.344-21.712-14.08-33.936-14.064
	c-12.224-0.016-24.608,4.72-33.936,14.064l-22.624,22.624c-3.168,3.152-7.168,4.672-11.312,4.688
	c-4.144-0.016-8.144-1.536-11.312-4.688l-87.312-87.312c-3.152-3.168-4.672-7.168-4.688-11.312
	c0.016-4.144,1.536-8.144,4.688-11.312l0,0l0,0l0,0l22.624-22.624c9.344-9.328,14.08-21.712,14.064-33.936
	c0.016-12.24-4.72-24.608-14.064-33.952L138.05,14.064C128.722,4.72,116.354-0.016,104.114,0C91.89-0.016,79.506,4.72,70.178,14.064
	L47.554,36.688l-22.64,22.624C7.826,76.192-0.158,97.648,0.002,119.024c0.496,43.296,27.568,86.144,60.016,127.024
	c32.688,40.688,68.912,75.648,97.472,104.224c28.576,28.56,66.736,67.984,107.424,100.672
	c40.864,32.448,83.728,59.52,127.024,60.016c21.376,0.16,42.832-7.824,59.712-24.912l22.624-22.624l0,0l0,0l22.624-22.624
	c9.344-9.328,14.08-21.712,14.064-33.936C510.978,394.608,506.242,382.224,496.898,372.896z M92.802,36.688
	c3.168-3.152,7.168-4.672,11.312-4.688c4.144,0.016,8.144,1.536,11.312,4.688l90.512,90.512c3.152,3.168,4.672,7.168,4.688,11.312
	c-0.016,4.144-1.536,8.144-4.688,11.312l-11.312,11.312L81.49,48L92.802,36.688z M429.01,463.408
	c-11.52,11.28-22.912,15.376-37.088,15.536c-28.56,0.496-68.592-21.76-106.976-52.96c-38.576-30.96-76.048-69.552-104.832-98.352
	c-28.8-28.784-64.176-63.056-95.152-101.632c-31.2-38.384-53.456-78.416-52.96-106.976c0.16-14.176,4.256-25.568,15.552-37.088
	l11.312-11.312L174.082,185.84c-3.104,6.512-4.832,13.52-4.832,20.544c-0.016,12.224,4.72,24.608,14.064,33.936l87.312,87.312
	c9.328,9.344,21.712,14.08,33.936,14.064c7.024,0.016,14.032-1.728,20.544-4.832L440.322,452.08L429.01,463.408z M474.274,418.16
	l-11.312,11.312L349.826,316.336l11.312-11.312c3.168-3.152,7.168-4.672,11.312-4.688c4.144,0.016,8.144,1.536,11.312,4.688
	l90.512,90.512c3.152,3.168,4.672,7.168,4.688,11.312C478.93,410.992,477.426,414.992,474.274,418.16z"/>
<g>
</g>
<g>
</g>
<g>
</g>
<g>
</g>
<g>
</g>
<g>
</g>
<g>
</g>
<g>
</g>
<g>
</g>
<g>
</g>
<g>
</g>
<g>
</g>
<g>
</g>
<g>
</g>
<g>
</g>
</svg>
