<?xml version="1.0" encoding="iso-8859-1"?>
<!-- Generator: Adobe Illustrator 19.0.0, SVG Export Plug-In . SVG Version: 6.00 Build 0)  -->
<svg version="1.1" id="Layer_1" xmlns="http://www.w3.org/2000/svg" xmlns:xlink="http://www.w3.org/1999/xlink" x="0px" y="0px"
	 viewBox="0 0 512 512" style="enable-background:new 0 0 512 512;" xml:space="preserve">
<g>
	<polygon style="fill:#97DBFF;" points="248.003,80 136.003,256 136.003,320 200.003,320 	"/>
</g>
<path style="fill:#4E5F80;" d="M391.683,396.864L328.771,82.24l29.552-59.088c2.48-4.976,2.224-10.832-0.704-15.568
	C354.691,2.864,349.555,0,344.003,0h-128c-5.568,0-10.688,2.864-13.616,7.584c-2.928,4.736-3.184,10.592-0.704,15.568l27.952,55.904
	L122.499,247.408c-1.632,2.56-2.496,5.552-2.496,8.592v64c0,4.208,1.712,8.336,4.688,11.312c2.976,2.976,7.104,4.688,11.312,4.688
	h44.48l-12.176,60.864c-1.056,5.248,0.592,10.672,4.368,14.448l96,96c2.992,2.976,7.12,4.688,11.328,4.688s8.336-1.712,11.312-4.688
	l96-96C391.091,407.536,392.739,402.112,391.683,396.864z M318.115,32l-16,32h-44.224l-16-32H318.115z M152.003,304v-43.344
	l63.504-99.808L186.883,304H152.003z M280.003,473.376l-78.624-78.624l14.32-71.6L261.123,96h2.88v48c0,8.832,7.168,16,16,16
	s16-7.168,16-16V96h2.88l59.744,298.736L280.003,473.376z"/>
<g>
</g>
<g>
</g>
<g>
</g>
<g>
</g>
<g>
</g>
<g>
</g>
<g>
</g>
<g>
</g>
<g>
</g>
<g>
</g>
<g>
</g>
<g>
</g>
<g>
</g>
<g>
</g>
<g>
</g>
</svg>
