<?xml version="1.0" encoding="iso-8859-1"?>
<!-- Generator: Adobe Illustrator 19.0.0, SVG Export Plug-In . SVG Version: 6.00 Build 0)  -->
<svg version="1.1" id="Layer_1" xmlns="http://www.w3.org/2000/svg" xmlns:xlink="http://www.w3.org/1999/xlink" x="0px" y="0px"
	 viewBox="0 0 512 512" style="enable-background:new 0 0 512 512;" xml:space="preserve">
<g>
	<circle style="fill:#97DBFF;" cx="256" cy="192" r="80"/>
	<path style="fill:#97DBFF;" d="M400,496H112v-32c0-17.68,14.32-32,32-32h224c17.68,0,32,14.32,32,32V496z"/>
</g>
<g>
	<path style="fill:#4E5F80;" d="M352,192c-0.032-52.992-43.024-95.968-96-96c-52.976,0.032-95.968,43.008-96,96
		c0.032,52.992,43.024,95.968,96,96C308.976,287.968,351.968,244.992,352,192z M192,192c0.064-35.264,28.752-63.936,64-64
		c35.248,0.064,63.936,28.736,64,64c-0.064,35.264-28.752,63.936-64,64C220.752,255.936,192.064,227.264,192,192z"/>
	<path style="fill:#4E5F80;" d="M368,416h-80v-34.896C378.688,365.792,447.968,286.976,448,192C447.968,86.096,361.92,0.032,256,0
		C150.08,0.032,64.032,86.096,64,192c0.032,94.976,69.312,173.792,160,189.104V416h-80c-26.512,0.016-47.984,21.488-48,48v32
		c0,4.208,1.712,8.336,4.688,11.312C103.664,510.288,107.792,512,112,512h288c4.208,0,8.336-1.712,11.312-4.688
		C414.288,504.336,416,500.208,416,496v-32C415.984,437.488,394.512,416.016,368,416z M96,192c0-44.128,17.92-84.048,46.928-113.072
		C171.952,49.92,211.856,32,256,32s84.048,17.92,113.072,46.928C398.08,107.952,416,147.872,416,192s-17.92,84.032-46.928,113.072
		C340.048,334.08,300.144,352,256,352s-84.048-17.92-113.072-46.928C113.92,276.032,96,236.128,96,192z M128,464
		c0.016-8.832,7.168-16,16-16h224c8.832,0,15.984,7.168,16,16v16H128V464z"/>
	<circle style="fill:#4E5F80;" cx="256" cy="192" r="32"/>
</g>
<g>
</g>
<g>
</g>
<g>
</g>
<g>
</g>
<g>
</g>
<g>
</g>
<g>
</g>
<g>
</g>
<g>
</g>
<g>
</g>
<g>
</g>
<g>
</g>
<g>
</g>
<g>
</g>
<g>
</g>
</svg>
